<svg xmlns="http://www.w3.org/2000/svg" width="46" height="46" viewBox="0 0 46 46" fill="none">
  <path d="M28.3637 27.1687L26.1895 26.8273L24.6352 28.3816L22.8293 30.1875H20.125H15.8125V34.5V35.9375H14.375H10.0625V40.25V41.6875H4.3125V34.6707L17.6184 21.3648L19.1727 19.8105L18.8313 17.6363C18.7414 17.0434 18.6875 16.4324 18.6875 15.8125C18.6875 9.46055 23.8355 4.3125 30.1875 4.3125C36.5395 4.3125 41.6875 9.46055 41.6875 15.8125C41.6875 22.1645 36.5395 27.3125 30.1875 27.3125C29.5676 27.3125 28.9566 27.2676 28.3637 27.1687ZM24.4375 34.5H24.6082L25.2371 33.8711L27.6809 31.4273C28.4984 31.5531 29.334 31.625 30.1875 31.625C38.9203 31.625 46 24.5453 46 15.8125C46 7.07969 38.9203 0 30.1875 0C21.4547 0 14.375 7.07969 14.375 15.8125C14.375 16.666 14.4379 17.5016 14.5727 18.3191L0.628906 32.2539L0 32.8828V33.7812V41.6875V43.8438V46H2.15625H4.3125H10.0625H12.2188H14.375V44.5625V43.8438V41.6875V40.25H15.8125H17.9688H18.6875H20.125V38.8125V38.0938V35.9375V34.5H23.7188H24.4375ZM33.0625 15.8125C33.825 15.8125 34.5563 15.5096 35.0954 14.9704C35.6346 14.4313 35.9375 13.7 35.9375 12.9375C35.9375 12.175 35.6346 11.4437 35.0954 10.9046C34.5563 10.3654 33.825 10.0625 33.0625 10.0625C32.3 10.0625 31.5687 10.3654 31.0296 10.9046C30.4904 11.4437 30.1875 12.175 30.1875 12.9375C30.1875 13.7 30.4904 14.4313 31.0296 14.9704C31.5687 15.5096 32.3 15.8125 33.0625 15.8125Z" fill="black"/>
</svg>