<svg id="esYoCb3e2PG1" xmlns="http://www.w3.org/2000/svg" xmlns:xlink="http://www.w3.org/1999/xlink" viewBox="0 0 640 512" shape-rendering="geometricPrecision" text-rendering="geometricPrecision">
<style><![CDATA[
#esYoCb3e2PG3 {animation: esYoCb3e2PG3_c_o 2000ms linear infinite normal forwards}@keyframes esYoCb3e2PG3_c_o { 0% {opacity: 0.1} 50% {opacity: 1} 100% {opacity: 0.1}}
]]></style>
<path d="M0,336c0,79.5,64.5,144,144,144h368c70.7,0,128-57.3,128-128c0-61.9-44-113.6-102.4-125.4c4.1-10.7,6.4-22.4,6.4-34.6c0-53-43-96-96-96-19.7,0-38.1,6-53.3,16.2C367,64.2,315.3,32,256,32C167.6,32,96,103.6,96,192c0,2.7.1,5.4.2,8.1C40.2,219.8,0,273.2,0,336Z" fill="#fff"/><ellipse id="esYoCb3e2PG3" rx="74.505416" ry="74.505416" transform="matrix(1.100001 0 0 1.100001 451.489108 187.589096)" opacity="0.1" fill="#ba3939" stroke-width="0"/></svg>
