<svg width="12" height="13" viewBox="0 0 12 13" fill="none" xmlns="http://www.w3.org/2000/svg">
<g id="copy-regular 1" clip-path="url(#clip0_482_118)">
<path id="Vector" d="M10.2857 8.53125H5.14286C4.90714 8.53125 4.71429 8.34844 4.71429 8.125V1.625C4.71429 1.40156 4.90714 1.21875 5.14286 1.21875H8.89554L10.7143 2.94277V8.125C10.7143 8.34844 10.5214 8.53125 10.2857 8.53125ZM5.14286 9.75H10.2857C11.2312 9.75 12 9.02129 12 8.125V2.94277C12 2.62031 11.8634 2.31055 11.6223 2.08203L9.80625 0.358008C9.56518 0.129492 9.23839 0 8.89821 0H5.14286C4.19732 0 3.42857 0.728711 3.42857 1.625V8.125C3.42857 9.02129 4.19732 9.75 5.14286 9.75ZM1.71429 3.25C0.76875 3.25 0 3.97871 0 4.875V11.375C0 12.2713 0.76875 13 1.71429 13H6.85714C7.80268 13 8.57143 12.2713 8.57143 11.375V10.5625H7.28571V11.375C7.28571 11.5984 7.09286 11.7812 6.85714 11.7812H1.71429C1.47857 11.7812 1.28571 11.5984 1.28571 11.375V4.875C1.28571 4.65156 1.47857 4.46875 1.71429 4.46875H2.57143V3.25H1.71429Z" fill="#A6A1B6"/>
</g>
<defs>
<clipPath id="clip0_482_118">
<rect width="12" height="13" fill="white"/>
</clipPath>
</defs>
</svg>
