<svg xmlns="http://www.w3.org/2000/svg" width="36" height="40" viewBox="0 0 36 40" fill="none">
  <path d="M12.2143 1.875C12.2143 0.835938 11.3545 0 10.2857 0C9.21696 0 8.35714 0.835938 8.35714 1.875V5H5.14286C2.30625 5 0 7.24219 0 10V11.25V15V35C0 37.7578 2.30625 40 5.14286 40H30.8571C33.6937 40 36 37.7578 36 35V15V11.25V10C36 7.24219 33.6937 5 30.8571 5H27.6429V1.875C27.6429 0.835938 26.783 0 25.7143 0C24.6455 0 23.7857 0.835938 23.7857 1.875V5H12.2143V1.875ZM3.85714 15H10.2857V19.375H3.85714V15ZM3.85714 23.125H10.2857V28.125H3.85714V23.125ZM14.1429 23.125H21.8571V28.125H14.1429V23.125ZM25.7143 23.125H32.1429V28.125H25.7143V23.125ZM32.1429 19.375H25.7143V15H32.1429V19.375ZM32.1429 31.875V35C32.1429 35.6875 31.5643 36.25 30.8571 36.25H25.7143V31.875H32.1429ZM21.8571 31.875V36.25H14.1429V31.875H21.8571ZM10.2857 31.875V36.25H5.14286C4.43571 36.25 3.85714 35.6875 3.85714 35V31.875H10.2857ZM21.8571 19.375H14.1429V15H21.8571V19.375Z" fill="#DDDCE0"/>
</svg>