<svg width="14" height="14" viewBox="0 0 14 14" fill="none" xmlns="http://www.w3.org/2000/svg">
<g clip-path="url(#clip0_568_531)">
<path d="M5.25 0H0.875C0.391016 0 0 0.391016 0 0.875V5.25C0 5.73398 0.391016 6.125 0.875 6.125C1.35898 6.125 1.75 5.73398 1.75 5.25V2.98867L8.13203 9.36797C8.47383 9.70977 9.02891 9.70977 9.3707 9.36797C9.7125 9.02617 9.7125 8.47109 9.3707 8.1293L2.98867 1.75H5.25C5.73398 1.75 6.125 1.35898 6.125 0.875C6.125 0.391016 5.73398 0 5.25 0ZM8.89492 1.83477C8.41914 1.75547 7.96797 2.07539 7.88594 2.55391C7.80391 3.03242 8.12656 3.48086 8.60508 3.56289C10.675 3.90742 12.25 5.70937 12.25 7.875C12.25 10.2922 10.2922 12.25 7.875 12.25C5.70937 12.25 3.90742 10.675 3.56016 8.60508C3.48086 8.1293 3.02969 7.80664 2.55117 7.88594C2.07266 7.96523 1.75273 8.41641 1.83203 8.89492C2.32148 11.7934 4.83984 14 7.875 14C11.2574 14 14 11.2574 14 7.875C14 4.83984 11.7934 2.32148 8.89492 1.83477Z" fill="white"/>
</g>
<defs>
<clipPath id="clip0_568_531">
<rect width="14" height="14" fill="white"/>
</clipPath>
</defs>
</svg>
