<svg xmlns="http://www.w3.org/2000/svg" width="33" height="44" viewBox="0 0 33 44" fill="none">
  <g clip-path="url(#clip0_481_36)">
    <path d="M28.875 16.5C28.875 9.66797 23.332 4.125 16.5 4.125C9.66797 4.125 4.125 9.66797 4.125 16.5C4.125 17.5656 4.51172 19.2156 5.43984 21.4156C6.34219 23.5469 7.62266 25.9016 9.09219 28.282C11.5414 32.2523 14.3773 36.0852 16.5 38.818C18.6313 36.0852 21.4672 32.2523 23.9078 28.282C25.3773 25.9016 26.6578 23.5469 27.5602 21.4156C28.4883 19.2156 28.875 17.5656 28.875 16.5ZM33 16.5C33 24.0109 22.9453 37.3828 18.5367 42.9C17.4797 44.2148 15.5203 44.2148 14.4633 42.9C10.0547 37.3828 0 24.0109 0 16.5C0 7.39062 7.39062 0 16.5 0C25.6094 0 33 7.39062 33 16.5ZM19.25 16.5C19.25 15.7707 18.9603 15.0712 18.4445 14.5555C17.9288 14.0397 17.2293 13.75 16.5 13.75C15.7707 13.75 15.0712 14.0397 14.5555 14.5555C14.0397 15.0712 13.75 15.7707 13.75 16.5C13.75 17.2293 14.0397 17.9288 14.5555 18.4445C15.0712 18.9603 15.7707 19.25 16.5 19.25C17.2293 19.25 17.9288 18.9603 18.4445 18.4445C18.9603 17.9288 19.25 17.2293 19.25 16.5ZM9.625 16.5C9.625 14.6766 10.3493 12.928 11.6386 11.6386C12.928 10.3493 14.6766 9.625 16.5 9.625C18.3234 9.625 20.072 10.3493 21.3614 11.6386C22.6507 12.928 23.375 14.6766 23.375 16.5C23.375 18.3234 22.6507 20.072 21.3614 21.3614C20.072 22.6507 18.3234 23.375 16.5 23.375C14.6766 23.375 12.928 22.6507 11.6386 21.3614C10.3493 20.072 9.625 18.3234 9.625 16.5Z" fill="#DDDCE0"/>
  </g>
  <defs>
    <clipPath id="clip0_481_36">
      <rect width="33" height="44" fill="white"/>
    </clipPath>
  </defs>
</svg>