<svg xmlns="http://www.w3.org/2000/svg" width="42" height="42" viewBox="0 0 42 42" fill="none">
  <g clip-path="url(#clip0_181_470)">
    <path d="M41.4258 22.3945C42.1969 21.6234 42.1969 20.3766 41.4258 19.6137L30.9258 9.10547C30.1547 8.33437 28.9078 8.33437 28.1449 9.10547C27.382 9.87656 27.3738 11.1234 28.1449 11.8863L35.2816 19.023L15.0938 19.0312C14.0027 19.0312 13.125 19.909 13.125 21C13.125 22.091 14.0027 22.9688 15.0938 22.9688H35.2816L28.1449 30.1055C27.3738 30.8766 27.3738 32.1234 28.1449 32.8863C28.916 33.6492 30.1629 33.6574 30.9258 32.8863L41.4258 22.3945ZM13.7813 6.5625C14.8723 6.5625 15.75 5.68477 15.75 4.59375C15.75 3.50273 14.8723 2.625 13.7813 2.625H7.21875C3.23203 2.625 0 5.85703 0 9.84375V32.1562C0 36.143 3.23203 39.375 7.21875 39.375H13.7813C14.8723 39.375 15.75 38.4973 15.75 37.4062C15.75 36.3152 14.8723 35.4375 13.7813 35.4375H7.21875C5.40586 35.4375 3.9375 33.9691 3.9375 32.1562V9.84375C3.9375 8.03086 5.40586 6.5625 7.21875 6.5625H13.7813Z" fill="white"/>
  </g>
  <defs>
    <clipPath id="clip0_181_470">
      <rect width="42" height="42" fill="white"/>
    </clipPath>
  </defs>
</svg>