<svg width="16" height="15" viewBox="0 0 16 15" fill="none" xmlns="http://www.w3.org/2000/svg">
<g clip-path="url(#clip0_71_831)">
<path d="M2.87306 3.91682C2.87306 3.70992 2.90805 3.50505 2.97602 3.31389C3.044 3.12274 3.14363 2.94906 3.26923 2.80276C3.39483 2.65646 3.54394 2.5404 3.70805 2.46123C3.87215 2.38205 4.04804 2.3413 4.22567 2.3413C4.40329 2.3413 4.57918 2.38205 4.74329 2.46123C4.90739 2.5404 5.0565 2.65646 5.1821 2.80276C5.3077 2.94906 5.40734 3.12274 5.47531 3.31389C5.54329 3.50505 5.57827 3.70992 5.57827 3.91682C5.57827 4.12372 5.54329 4.3286 5.47531 4.51975C5.40734 4.7109 5.3077 4.88459 5.1821 5.03089C5.0565 5.17719 4.90739 5.29324 4.74329 5.37242C4.57918 5.4516 4.40329 5.49235 4.22567 5.49235C4.04804 5.49235 3.87215 5.4516 3.70805 5.37242C3.54394 5.29324 3.39483 5.17719 3.26923 5.03089C3.14363 4.88459 3.044 4.7109 2.97602 4.51975C2.90805 4.3286 2.87306 4.12372 2.87306 3.91682ZM6.73765 3.91682C6.73765 3.14081 6.47299 2.39657 6.0019 1.84784C5.53082 1.29912 4.89189 0.990845 4.22567 0.990845C3.55945 0.990845 2.92052 1.29912 2.44943 1.84784C1.97834 2.39657 1.71369 3.14081 1.71369 3.91682C1.71369 4.69284 1.97834 5.43708 2.44943 5.9858C2.92052 6.53453 3.55945 6.8428 4.22567 6.8428C4.89189 6.8428 5.53082 6.53453 6.0019 5.9858C6.47299 5.43708 6.73765 4.69284 6.73765 3.91682ZM11.9548 6.39265C12.2593 6.39265 12.5609 6.32279 12.8422 6.18706C13.1235 6.05132 13.3791 5.85238 13.5944 5.60157C13.8098 5.35077 13.9806 5.05303 14.0971 4.72534C14.2136 4.39765 14.2736 4.04644 14.2736 3.69175C14.2736 3.33706 14.2136 2.98585 14.0971 2.65816C13.9806 2.33047 13.8098 2.03272 13.5944 1.78192C13.3791 1.53112 13.1235 1.33217 12.8422 1.19644C12.5609 1.06071 12.2593 0.990845 11.9548 0.990845C11.6503 0.990845 11.3488 1.06071 11.0675 1.19644C10.7862 1.33217 10.5305 1.53112 10.3152 1.78192C10.0999 2.03272 9.92912 2.33047 9.81259 2.65816C9.69606 2.98585 9.63608 3.33706 9.63608 3.69175C9.63608 4.04644 9.69606 4.39765 9.81259 4.72534C9.92912 5.05303 10.0999 5.35077 10.3152 5.60157C10.5305 5.85238 10.7862 6.05132 11.0675 6.18706C11.3488 6.32279 11.6503 6.39265 11.9548 6.39265ZM3.45275 9.5437H4.99858C6.06617 9.5437 6.93088 10.5509 6.93088 11.7945V12.2446H1.52046V11.7945C1.52046 10.5509 2.38516 9.5437 3.45275 9.5437ZM3.45275 8.19325C1.74509 8.19325 0.361084 9.80536 0.361084 11.7945V12.2446C0.361084 12.9902 0.880387 13.5951 1.52046 13.5951H6.93088C7.57095 13.5951 8.09025 12.9902 8.09025 12.2446V11.7945C8.09025 9.80536 6.70625 8.19325 4.99858 8.19325H3.45275ZM11.1819 13.5951H12.7278C14.4354 13.5951 15.8194 11.983 15.8194 9.99386V9.5437C15.8194 8.79814 15.3001 8.19325 14.66 8.19325H9.24963C8.72308 8.19325 8.27623 8.60402 8.13614 9.1667C8.59265 9.90664 8.86317 10.8126 8.86317 11.7945V12.2446C8.86317 12.2868 8.86317 12.329 8.86075 12.3712C9.42595 13.1224 10.2568 13.5951 11.1819 13.5951Z" fill="white"/>
</g>
<defs>
<clipPath id="clip0_71_831">
<rect width="15.4583" height="14.4048" fill="white" transform="translate(0.361084 0.0905762)"/>
</clipPath>
</defs>
</svg>
