<svg width="14" height="14" viewBox="0 0 14 14" fill="none" xmlns="http://www.w3.org/2000/svg">
<g clip-path="url(#clip0_568_533)">
<path d="M3.88646 5.5207L6.61111 2.79727V11.2027L3.88646 8.4793C3.77951 8.37266 3.64097 8.3125 3.5 8.3125H1.36111C1.25417 8.3125 1.16667 8.21406 1.16667 8.09375V5.90625C1.16667 5.78594 1.25417 5.6875 1.36111 5.6875H3.5C3.6434 5.6875 3.78194 5.62734 3.88646 5.5207ZM7.05347 0.875C6.87604 0.875 6.7059 0.948828 6.57222 1.08008L3.27882 4.375H1.36111C0.610069 4.375 0 5.06133 0 5.90625V8.09375C0 8.93867 0.610069 9.625 1.36111 9.625H3.27882L6.57222 12.9199C6.7059 13.0512 6.87604 13.125 7.05347 13.125C7.45451 13.125 7.77778 12.7613 7.77778 12.3102V1.68984C7.77778 1.23867 7.45451 0.875 7.05347 0.875ZM10.3299 4.56641C10.1014 4.30938 9.73195 4.30938 9.5059 4.56641C9.27986 4.82344 9.27743 5.23906 9.5059 5.49336L10.8427 6.99727L9.5059 8.50117C9.27743 8.7582 9.27743 9.17383 9.5059 9.42812C9.73438 9.68242 10.1038 9.68516 10.3299 9.42812L11.6667 7.92422L13.0035 9.42812C13.2319 9.68516 13.6014 9.68516 13.8274 9.42812C14.0535 9.17109 14.0559 8.75547 13.8274 8.50117L12.4906 6.99727L13.8274 5.49336C14.0559 5.23633 14.0559 4.8207 13.8274 4.56641C13.599 4.31211 13.2295 4.30938 13.0035 4.56641L11.6667 6.07031L10.3299 4.56641Z" fill="white"/>
</g>
<defs>
<clipPath id="clip0_568_533">
<rect width="14" height="14" fill="white"/>
</clipPath>
</defs>
</svg>
