<svg xmlns="http://www.w3.org/2000/svg" width="23" height="27" viewBox="0 0 23 27" fill="none">
  <g clip-path="url(#clip0_248_577)">
    <path d="M11.5003 0C10.5916 0 9.85746 0.754102 9.85746 1.6875V2.63145C6.13536 3.23789 3.28603 6.54961 3.28603 10.5469V12.3082C3.28603 14.7023 2.49027 17.0279 1.03737 18.8947L0.272415 19.8809C-0.0253528 20.2605 -0.081826 20.7826 0.123531 21.2203C0.328888 21.658 0.760138 21.9375 1.23246 21.9375H21.7682C22.2405 21.9375 22.6717 21.658 22.8771 21.2203C23.0825 20.7826 23.026 20.2605 22.7282 19.8809L21.9633 18.9C20.5104 17.0279 19.7146 14.7023 19.7146 12.3082V10.5469C19.7146 6.54961 16.8653 3.23789 13.1432 2.63145V1.6875C13.1432 0.754102 12.409 0 11.5003 0ZM11.5003 5.0625H11.911C14.8579 5.0625 17.2503 7.51992 17.2503 10.5469V12.3082C17.2503 14.8342 17.9639 17.2969 19.2885 19.4062H3.71215C5.0367 17.2969 5.75032 14.8342 5.75032 12.3082V10.5469C5.75032 7.51992 8.14273 5.0625 11.0896 5.0625H11.5003ZM14.786 23.625H11.5003H8.2146C8.2146 24.5215 8.55858 25.3811 9.17465 26.0139C9.79072 26.6467 10.6276 27 11.5003 27C12.3731 27 13.2099 26.6467 13.826 26.0139C14.4421 25.3811 14.786 24.5215 14.786 23.625Z" fill="white"/>
  </g>
  <defs>
    <clipPath id="clip0_248_577">
      <rect width="23" height="27" fill="white"/>
    </clipPath>
  </defs>
</svg>