<svg xmlns="http://www.w3.org/2000/svg" width="102" height="102" viewBox="0 0 102 102" fill="none">
  <g clip-path="url(#clip0_219_287)">
    <mask id="mask0_219_287" style="mask-type:luminance" maskUnits="userSpaceOnUse" x="6" y="10" width="89" height="81">
      <path d="M31.5566 10.415L94.8735 46.971L69.9108 90.2076L6.59397 53.6516L31.5566 10.415Z" fill="white"/>
    </mask>
    <g mask="url(#mask0_219_287)">
      <mask id="mask1_219_287" style="mask-type:luminance" maskUnits="userSpaceOnUse" x="3" y="4" width="91" height="89">
        <path d="M37.9158 4.64704L93.7801 50.1892L59.273 92.518L3.40836 46.9756L37.9158 4.64704Z" fill="white"/>
      </mask>
      <g mask="url(#mask1_219_287)">
        <mask id="mask2_219_287" style="mask-type:luminance" maskUnits="userSpaceOnUse" x="3" y="4" width="91" height="89">
          <path d="M37.9158 4.64704L93.7801 50.1892L59.273 92.518L3.40836 46.9756L37.9158 4.64704Z" fill="white"/>
        </mask>
        <g mask="url(#mask2_219_287)">
          <mask id="mask3_219_287" style="mask-type:luminance" maskUnits="userSpaceOnUse" x="3" y="4" width="91" height="89">
            <path d="M37.9332 4.66102L93.7696 50.1805L59.229 92.5504L3.39197 47.031L37.9332 4.66102Z" fill="white"/>
          </mask>
          <g mask="url(#mask3_219_287)">
            <mask id="mask4_219_287" style="mask-type:luminance" maskUnits="userSpaceOnUse" x="3" y="4" width="91" height="89">
              <path d="M37.933 4.66101L93.7601 50.1728L59.2537 92.4997L3.4269 46.9881L37.933 4.66101Z" fill="white"/>
            </mask>
            <g mask="url(#mask4_219_287)">
              <path d="M89.8851 47.0134C87.7451 45.2687 84.5958 45.5898 82.8509 47.7301C81.655 49.1972 81.4297 51.1375 82.0943 52.7753C74.9959 54.5004 67.8914 56.2269 60.6915 57.9766C60.1044 51.4347 59.5068 44.7754 58.8783 37.7694C60.8485 38.5442 63.173 38.0037 64.5823 36.2749C66.3274 34.1342 66.0072 30.9849 63.8675 29.2404C61.7275 27.4958 58.5778 27.8166 56.8328 29.9573C55.2318 31.9209 55.3739 34.731 57.0597 36.5294C50.1979 39.4975 43.959 42.1959 37.6756 44.9136C35.7965 38.1713 34.0225 31.8053 32.1999 25.2643C33.4513 25.1217 34.6506 24.5114 35.5096 23.4582C37.2547 21.3175 36.9347 18.1679 34.7943 16.423C32.6546 14.6785 29.5048 14.9997 27.7599 17.1401C26.0148 19.2808 26.3354 22.4303 28.4751 24.1748C28.8076 24.446 29.1661 24.6614 29.538 24.8334C29.5281 24.8637 29.5161 24.8937 29.5062 24.9241C26.1708 35.2197 22.9993 45.5707 19.46 55.7948C18.3965 58.8671 19.1891 60.2632 21.7996 61.7749C32.4501 67.9413 43.047 74.2058 53.5318 80.6491C56.2102 82.2952 57.8818 82.0778 59.9699 79.8116C67.2021 71.9626 74.5998 64.2669 81.9226 56.5013C82.4687 55.9216 82.9958 55.3239 83.5184 54.7217C83.5348 54.7357 83.5489 54.7513 83.5655 54.7649C85.7056 56.5096 88.8554 56.1884 90.6005 54.0477C92.3454 51.9074 92.0248 48.7579 89.8851 47.0134Z" fill="#D9D9D9"/>
            </g>
          </g>
        </g>
      </g>
    </g>
  </g>
  <defs>
    <clipPath id="clip0_219_287">
      <rect width="74" height="74" fill="white" transform="translate(37) rotate(30)"/>
    </clipPath>
  </defs>
</svg>