<svg width="13" height="11" viewBox="0 0 13 11" fill="none" xmlns="http://www.w3.org/2000/svg">
<g clip-path="url(#clip0_71_842)">
<path d="M3.25 0.6875C3.81027 0.6875 4.34759 0.922907 4.74376 1.34193C5.13993 1.76096 5.3625 2.32928 5.3625 2.92188C5.3625 3.51447 5.13993 4.08279 4.74376 4.50182C4.34759 4.92084 3.81027 5.15625 3.25 5.15625C2.68973 5.15625 2.15241 4.92084 1.75624 4.50182C1.36007 4.08279 1.1375 3.51447 1.1375 2.92188C1.1375 2.32928 1.36007 1.76096 1.75624 1.34193C2.15241 0.922907 2.68973 0.6875 3.25 0.6875ZM9.75 0.6875C10.3103 0.6875 10.8476 0.922907 11.2438 1.34193C11.6399 1.76096 11.8625 2.32928 11.8625 2.92188C11.8625 3.51447 11.6399 4.08279 11.2438 4.50182C10.8476 4.92084 10.3103 5.15625 9.75 5.15625C9.18973 5.15625 8.65241 4.92084 8.25624 4.50182C7.86007 4.08279 7.6375 3.51447 7.6375 2.92188C7.6375 2.32928 7.86007 1.76096 8.25624 1.34193C8.65241 0.922907 9.18973 0.6875 9.75 0.6875ZM0 8.9375C0 7.41855 1.16391 6.1875 2.6 6.1875H3.9C5.33609 6.1875 6.5 7.41855 6.5 8.9375V9.28125C6.5 9.85059 6.06328 10.3125 5.525 10.3125H0.975C0.436719 10.3125 0 9.85059 0 9.28125V8.9375ZM9.1 10.3125C8.32203 10.3125 7.62328 9.95156 7.14797 9.37793C7.15 9.3457 7.15 9.31348 7.15 9.28125V8.9375C7.15 8.1877 6.9225 7.4959 6.53859 6.93086C6.65641 6.50117 7.03016 6.1875 7.475 6.1875H12.025C12.5633 6.1875 13 6.64941 13 7.21875V7.5625C13 9.08145 11.8361 10.3125 10.4 10.3125H9.1Z" fill="#BAB7C0"/>
</g>
<defs>
<clipPath id="clip0_71_842">
<rect width="13" height="11" fill="white"/>
</clipPath>
</defs>
</svg>
