<svg xmlns="http://www.w3.org/2000/svg" width="56" height="45" viewBox="0 0 56 45" fill="none">
<g clip-path="url(#clip0_481_47)">
<path d="M30.9575 4.7548L35.5337 5.41398C36.3475 5.53703 36.6888 6.54777 36.0938 7.15422L32.7687 10.371L33.5562 14.9501C33.6787 15.7675 32.8387 16.4003 32.0863 16.0224L28.0088 13.8779L23.905 16.0575C23.1525 16.4355 22.3037 15.8027 22.435 14.9853L23.2225 10.4062L19.8975 7.15422C19.3025 6.55656 19.6438 5.54582 20.4575 5.41398L25.0338 4.7548L27.1075 0.553633C27.4837 -0.202227 28.5513 -0.175859 28.8925 0.553633L30.9575 4.7548ZM23.8 26.7187V40.7812H32.2V26.7187H23.8ZM19.6 26.7187C19.6 24.3896 21.4812 22.4999 23.8 22.4999H32.2C34.5187 22.4999 36.4 24.3896 36.4 26.7187V40.7812C36.4 43.1103 34.5187 44.9999 32.2 44.9999H23.8C21.4812 44.9999 19.6 43.1103 19.6 40.7812V26.7187ZM4.2 32.3437V40.7812H12.6V32.3437H4.2ZM0 32.3437C0 30.0146 1.88125 28.1249 4.2 28.1249H12.6C14.9187 28.1249 16.8 30.0146 16.8 32.3437V40.7812C16.8 43.1103 14.9187 44.9999 12.6 44.9999H4.2C1.88125 44.9999 0 43.1103 0 40.7812V32.3437ZM51.8 35.1562H43.4V40.7812H51.8V35.1562ZM43.4 30.9374H51.8C54.1187 30.9374 56 32.8271 56 35.1562V40.7812C56 43.1103 54.1187 44.9999 51.8 44.9999H43.4C41.0812 44.9999 39.2 43.1103 39.2 40.7812V35.1562C39.2 32.8271 41.0812 30.9374 43.4 30.9374Z" fill="#DDDCE0"/>
</g>
<defs>
<clipPath id="clip0_481_47">
<rect width="56" height="45" fill="white"/>
</clipPath>
</defs>
</svg>