<svg width="218" height="180" viewBox="0 0 218 180" fill="none" xmlns="http://www.w3.org/2000/svg">
<g id="robot 1" clip-path="url(#clip0_952_319)">
<path id="Vector" opacity="0.4" d="M108.942 0.767578C102.924 0.767578 98.0625 5.7579 98.0625 11.9347V34.269H119.822V11.9347C119.822 5.7579 114.96 0.767578 108.942 0.767578ZM65.4235 140.357C65.4235 143.428 67.8714 145.94 70.8634 145.94H81.743C84.7349 145.94 87.1829 143.428 87.1829 140.357C87.1829 137.286 84.7349 134.773 81.743 134.773H70.8634C67.8714 134.773 65.4235 137.286 65.4235 140.357ZM98.0625 140.357C98.0625 143.428 100.51 145.94 103.502 145.94H114.382C117.374 145.94 119.822 143.428 119.822 140.357C119.822 137.286 117.374 134.773 114.382 134.773H103.502C100.51 134.773 98.0625 137.286 98.0625 140.357ZM130.702 140.357C130.702 143.428 133.149 145.94 136.141 145.94H147.021C150.013 145.94 152.461 143.428 152.461 140.357C152.461 137.286 150.013 134.773 147.021 134.773H136.141C133.149 134.773 130.702 137.286 130.702 140.357ZM27.3447 78.9376C18.3349 78.9376 11.0251 86.4405 11.0251 95.6883V129.19C11.0251 138.438 18.3349 145.94 27.3447 145.94H32.7845V78.9376H27.3447ZM190.54 78.9376H185.1V145.94H190.54C199.549 145.94 206.859 138.438 206.859 129.19V95.6883C206.859 86.4405 199.549 78.9376 190.54 78.9376Z" fill="white" fill-opacity="0.5"/>
<path id="Vector_2" d="M57.2638 34.2686C43.7322 34.2686 32.7845 45.5055 32.7845 59.3946V154.315C32.7845 168.204 43.7322 179.441 57.2638 179.441H160.621C174.152 179.441 185.1 168.204 185.1 154.315V59.3946C185.1 45.5055 174.152 34.2686 160.621 34.2686H57.2638ZM70.8634 134.773H81.743C84.7349 134.773 87.1829 137.285 87.1829 140.356C87.1829 143.427 84.7349 145.94 81.743 145.94H70.8634C67.8715 145.94 65.4235 143.427 65.4235 140.356C65.4235 137.285 67.8715 134.773 70.8634 134.773ZM103.502 134.773H114.382C117.374 134.773 119.822 137.285 119.822 140.356C119.822 143.427 117.374 145.94 114.382 145.94H103.502C100.51 145.94 98.0625 143.427 98.0625 140.356C98.0625 137.285 100.51 134.773 103.502 134.773ZM136.141 134.773H147.021C150.013 134.773 152.461 137.285 152.461 140.356C152.461 143.427 150.013 145.94 147.021 145.94H136.141C133.149 145.94 130.702 143.427 130.702 140.356C130.702 137.285 133.149 134.773 136.141 134.773ZM62.7036 90.1043C62.7036 86.4021 64.1364 82.8516 66.6868 80.2338C69.2373 77.616 72.6964 76.1453 76.3032 76.1453C79.91 76.1453 83.3691 77.616 85.9196 80.2338C88.47 82.8516 89.9028 86.4021 89.9028 90.1043C89.9028 93.8064 88.47 97.3569 85.9196 99.9747C83.3691 102.593 79.91 104.063 76.3032 104.063C72.6964 104.063 69.2373 102.593 66.6868 99.9747C64.1364 97.3569 62.7036 93.8064 62.7036 90.1043ZM141.581 76.1453C145.188 76.1453 148.647 77.616 151.198 80.2338C153.748 82.8516 155.181 86.4021 155.181 90.1043C155.181 93.8064 153.748 97.3569 151.198 99.9747C148.647 102.593 145.188 104.063 141.581 104.063C137.974 104.063 134.515 102.593 131.965 99.9747C129.414 97.3569 127.982 93.8064 127.982 90.1043C127.982 86.4021 129.414 82.8516 131.965 80.2338C134.515 77.616 137.974 76.1453 141.581 76.1453Z" fill="white" fill-opacity="0.5"/>
</g>
<defs>
<clipPath id="clip0_952_319">
<rect width="217.593" height="178.674" fill="white" transform="translate(0.145477 0.767578)"/>
</clipPath>
</defs>
</svg>
