<svg width="1233" height="683" viewBox="0 0 1233 683" fill="none" xmlns="http://www.w3.org/2000/svg">
<g clip-path="url(#clip0_982_138)">
<mask id="mask0_982_138" style="mask-type:luminance" maskUnits="userSpaceOnUse" x="0" y="0" width="1232" height="683">
<path d="M0 682.965L0 0.78125L1231.51 0.78125L1231.51 682.965L0 682.965Z" fill="white"/>
</mask>
<g mask="url(#mask0_982_138)">
<path d="M0 682.965L0 0.0348511L1232.16 0.0348511L1232.16 682.965L0 682.965Z" fill="url(#paint0_linear_982_138)" fill-opacity="0.75"/>
</g>
<mask id="mask1_982_138" style="mask-type:luminance" maskUnits="userSpaceOnUse" x="0" y="0" width="587" height="12">
<path d="M0 11.2314L0 0.781173L586.936 0.781173V11.2314L0 11.2314Z" fill="white"/>
</mask>
<g mask="url(#mask1_982_138)">
<mask id="mask2_982_138" style="mask-type:luminance" maskUnits="userSpaceOnUse" x="-7" y="0" width="594" height="12">
<path d="M-6.72559 5.63308C-6.72559 2.54232 -4.21522 0.0347242 -1.12104 0.0347242L581.343 0.0347242C584.437 0.0347242 586.936 2.54232 586.936 5.63308C586.936 8.73551 584.437 11.2314 581.343 11.2314L-1.12104 11.2314C-4.21522 11.2314 -6.72559 8.73551 -6.72559 5.63308Z" fill="white"/>
</mask>
<g mask="url(#mask2_982_138)">
<path d="M-6.72559 11.2314L-6.72559 0.0347242L586.936 0.0347242V11.2314L-6.72559 11.2314Z" fill="white"/>
</g>
</g>
<mask id="mask3_982_138" style="mask-type:luminance" maskUnits="userSpaceOnUse" x="0" y="671" width="587" height="12">
<path d="M0 682.965L0 671.768L586.936 671.768V682.965L0 682.965Z" fill="white"/>
</mask>
<g mask="url(#mask3_982_138)">
<mask id="mask4_982_138" style="mask-type:luminance" maskUnits="userSpaceOnUse" x="-7" y="671" width="594" height="12">
<path d="M-6.72559 677.366C-6.72559 674.276 -4.21522 671.768 -1.12104 671.768L581.343 671.768C584.437 671.768 586.936 674.276 586.936 677.366C586.936 680.457 584.437 682.965 581.343 682.965L-1.12104 682.965C-4.21522 682.965 -6.72559 680.457 -6.72559 677.366Z" fill="white"/>
</mask>
<g mask="url(#mask4_982_138)">
<path d="M-6.72559 682.965L-6.72559 671.768L586.936 671.768V682.965L-6.72559 682.965Z" fill="white"/>
</g>
</g>
<mask id="mask5_982_138" style="mask-type:luminance" maskUnits="userSpaceOnUse" x="0" y="0" width="12" height="683">
<path d="M0 682.953L0 0.781189H11.2091L11.2091 682.953H0Z" fill="white"/>
</mask>
<g mask="url(#mask5_982_138)">
<mask id="mask6_982_138" style="mask-type:luminance" maskUnits="userSpaceOnUse" x="0" y="0" width="12" height="683">
<path d="M5.60455 682.953C2.51037 682.953 0 680.457 0 677.366L0 6.29791C0 3.20715 2.51037 0.699585 5.60455 0.699585C8.69872 0.699585 11.2091 3.20715 11.2091 6.29791L11.2091 677.366C11.2091 680.457 8.69872 682.953 5.60455 682.953Z" fill="white"/>
</mask>
<g mask="url(#mask6_982_138)">
<path d="M11.2091 682.953H0L0 0.699585H11.2091L11.2091 682.953Z" fill="white"/>
</g>
</g>
<mask id="mask7_982_138" style="mask-type:luminance" maskUnits="userSpaceOnUse" x="645" y="671" width="587" height="12">
<path d="M645.9 682.965V671.768L1231.51 671.768V682.965L645.9 682.965Z" fill="white"/>
</mask>
<g mask="url(#mask7_982_138)">
<mask id="mask8_982_138" style="mask-type:luminance" maskUnits="userSpaceOnUse" x="645" y="671" width="595" height="12">
<path d="M1239.57 677.366C1239.57 680.457 1237.06 682.965 1233.97 682.965L651.505 682.965C648.411 682.965 645.9 680.457 645.9 677.366C645.9 674.276 648.411 671.768 651.505 671.768L1233.97 671.768C1237.06 671.768 1239.57 674.276 1239.57 677.366Z" fill="white"/>
</mask>
<g mask="url(#mask8_982_138)">
<path d="M1239.57 671.768V682.965L645.9 682.965V671.768L1239.57 671.768Z" fill="white"/>
</g>
</g>
<mask id="mask9_982_138" style="mask-type:luminance" maskUnits="userSpaceOnUse" x="645" y="0" width="587" height="12">
<path d="M645.9 11.2314V0.781173L1231.51 0.781173V11.2314L645.9 11.2314Z" fill="white"/>
</mask>
<g mask="url(#mask9_982_138)">
<mask id="mask10_982_138" style="mask-type:luminance" maskUnits="userSpaceOnUse" x="645" y="0" width="595" height="12">
<path d="M1239.57 5.63308C1239.57 8.73551 1237.06 11.2314 1233.97 11.2314L651.505 11.2314C648.411 11.2314 645.9 8.73551 645.9 5.63308C645.9 2.54232 648.411 0.0347242 651.505 0.0347242L1233.97 0.0347242C1237.06 0.0347242 1239.57 2.54232 1239.57 5.63308Z" fill="white"/>
</mask>
<g mask="url(#mask10_982_138)">
<path d="M1239.57 0.0347242V11.2314L645.9 11.2314V0.0347242L1239.57 0.0347242Z" fill="white"/>
</g>
</g>
<mask id="mask11_982_138" style="mask-type:luminance" maskUnits="userSpaceOnUse" x="1221" y="0" width="11" height="683">
<path d="M1221.64 682.3L1221.64 0.781006H1231.51L1231.51 682.3H1221.64Z" fill="white"/>
</mask>
<g mask="url(#mask11_982_138)">
<mask id="mask12_982_138" style="mask-type:luminance" maskUnits="userSpaceOnUse" x="1221" y="0" width="12" height="683">
<path d="M1227.24 0.0462646C1230.34 0.0462646 1232.85 2.54218 1232.85 5.64459L1232.85 676.701C1232.85 679.792 1230.34 682.3 1227.24 682.3C1224.15 682.3 1221.64 679.792 1221.64 676.701L1221.64 5.64459C1221.64 2.54218 1224.15 0.0462646 1227.24 0.0462646Z" fill="white"/>
</mask>
<g mask="url(#mask12_982_138)">
<path d="M1221.64 0.0462646H1232.85L1232.85 682.3H1221.64L1221.64 0.0462646Z" fill="white"/>
</g>
</g>
<mask id="mask13_982_138" style="mask-type:luminance" maskUnits="userSpaceOnUse" x="610" y="2" width="12" height="683">
<path d="M610 684.184L610 2H621.209L621.209 684.184H610Z" fill="white"/>
</mask>
<g mask="url(#mask13_982_138)">
<mask id="mask14_982_138" style="mask-type:luminance" maskUnits="userSpaceOnUse" x="610" y="2" width="12" height="311">
<path d="M615.605 313C612.51 313 610 311.939 610 310.632L610 4.58695C610 3.27951 612.51 2.21875 615.605 2.21875C618.699 2.21875 621.209 3.27951 621.209 4.58695L621.209 310.632C621.209 311.939 618.699 313 615.605 313Z" fill="white"/>
</mask>
<g mask="url(#mask14_982_138)">
<path d="M621.209 313H610L610 2.21875H621.209L621.209 313Z" fill="white"/>
</g>
<mask id="mask15_982_138" style="mask-type:luminance" maskUnits="userSpaceOnUse" x="609" y="371" width="12" height="313">
<path d="M615.129 683.151C612.035 683.151 609.525 682.086 609.525 680.773L609.525 373.379C609.525 372.065 612.035 371 615.129 371C618.224 371 620.734 372.065 620.734 373.379L620.734 680.773C620.734 682.086 618.224 683.151 615.129 683.151Z" fill="white"/>
</mask>
<g mask="url(#mask15_982_138)">
<path d="M620.734 683.151H609.525L609.525 371H620.734L620.734 683.151Z" fill="white"/>
</g>
</g>
<mask id="mask16_982_138" style="mask-type:luminance" maskUnits="userSpaceOnUse" x="744" y="545" width="43" height="46">
<path d="M744.284 590.44V545.735H786.131V590.44H744.284Z" fill="white"/>
</mask>
<g mask="url(#mask16_982_138)">
<path fill-rule="evenodd" clip-rule="evenodd" d="M766.305 547.286C758.12 547.286 749.339 552.826 748.207 565.212C747.366 574.461 749.468 581.354 754.489 585.67C754.862 585.996 755.271 586.148 755.761 586.148H776.848C777.35 586.148 777.759 585.996 778.133 585.67C783.142 581.354 785.255 574.461 784.403 565.212C783.27 552.826 774.502 547.286 766.305 547.286ZM776.848 587.688H755.761C754.909 587.688 754.15 587.396 753.496 586.836C748.09 582.171 745.802 574.846 746.701 565.072C747.249 559.089 749.596 554.086 753.484 550.598C756.976 547.473 761.529 545.758 766.305 545.758C771.092 545.758 775.646 547.473 779.137 550.598C783.025 554.086 785.372 559.089 785.921 565.072C786.82 574.846 784.531 582.171 779.114 586.836C778.471 587.396 777.701 587.688 776.848 587.688Z" fill="#FFBD59"/>
</g>
<path fill-rule="evenodd" clip-rule="evenodd" d="M762.218 599.014C761.856 599.014 761.541 598.745 761.471 598.372C760.782 594.103 758.587 590.255 755.282 587.514C754.955 587.245 754.909 586.756 755.177 586.429C755.446 586.102 755.925 586.056 756.24 586.324C759.824 589.298 762.218 593.485 762.977 598.116C763.035 598.535 762.755 598.932 762.346 599.002C762.3 599.002 762.265 599.014 762.218 599.014Z" fill="#FFBD59"/>
<path fill-rule="evenodd" clip-rule="evenodd" d="M770.391 599.014C770.356 599.014 770.31 599.002 770.275 599.002C769.854 598.932 769.574 598.535 769.644 598.116C770.403 593.485 772.785 589.298 776.369 586.324C776.696 586.056 777.175 586.102 777.444 586.429C777.701 586.756 777.654 587.245 777.339 587.514C774.034 590.255 771.839 594.103 771.139 598.372C771.08 598.745 770.753 599.014 770.391 599.014Z" fill="#FFBD59"/>
<mask id="mask17_982_138" style="mask-type:luminance" maskUnits="userSpaceOnUse" x="759" y="596" width="16" height="20">
<path d="M759.229 615.144V596.412H774.174V615.144H759.229Z" fill="white"/>
</mask>
<g mask="url(#mask17_982_138)">
<path fill-rule="evenodd" clip-rule="evenodd" d="M762.942 599.013L762.125 612.613C762.113 612.659 762.195 612.776 762.417 612.916C763.981 613.872 768.64 613.872 770.193 612.916C770.426 612.776 770.496 612.659 770.496 612.613L769.679 599.013H762.942ZM766.305 615.167C764.483 615.167 762.662 614.852 761.634 614.222C760.689 613.639 760.583 612.904 760.607 612.519L761.471 598.197C761.494 597.789 761.821 597.474 762.23 597.474H770.391C770.8 597.474 771.127 597.789 771.15 598.197L772.014 612.519C772.038 612.904 771.933 613.639 770.975 614.222C769.959 614.852 768.126 615.167 766.305 615.167Z" fill="#FFBD59"/>
</g>
<mask id="mask18_982_138" style="mask-type:luminance" maskUnits="userSpaceOnUse" x="715" y="545" width="39" height="49">
<path d="M715.082 593.427V545.736H753.251V593.427H715.082Z" fill="white"/>
</mask>
<g mask="url(#mask18_982_138)">
<path fill-rule="evenodd" clip-rule="evenodd" d="M736.203 593.089C735.982 593.089 735.771 593.066 735.55 593.031C728.556 591.724 722.963 586.546 718.899 577.612C716.529 572.398 716.027 567.091 717.44 562.263C718.713 557.947 721.503 554.157 725.31 551.614C729.093 549.083 733.588 547.94 737.978 548.384C742.824 548.885 747.284 551.253 750.857 555.23C751.137 555.545 751.114 556.035 750.81 556.315C750.495 556.606 750.016 556.583 749.736 556.268C742.31 547.999 732.537 548.617 726.15 552.897C720.207 556.874 715.105 565.564 720.277 576.97C724.119 585.426 729.35 590.313 735.818 591.514C736.309 591.608 736.741 591.538 737.161 591.281L751.207 583.07C751.569 582.86 752.036 582.988 752.246 583.362C752.457 583.723 752.328 584.19 751.966 584.4L737.92 592.611C737.383 592.937 736.799 593.089 736.203 593.089Z" fill="#FFBD59"/>
</g>
<path fill-rule="evenodd" clip-rule="evenodd" d="M748.732 599.258C748.51 599.258 748.3 599.165 748.149 598.978C745.44 595.631 741.633 593.415 737.418 592.703C737.009 592.633 736.729 592.237 736.799 591.828C736.869 591.408 737.255 591.129 737.663 591.187C742.24 591.957 746.374 594.371 749.316 597.998C749.585 598.325 749.538 598.815 749.211 599.083C749.071 599.199 748.907 599.258 748.732 599.258Z" fill="#FFBD59"/>
<path fill-rule="evenodd" clip-rule="evenodd" d="M755.808 595.118C755.504 595.118 755.212 594.932 755.096 594.617C754.15 592.062 753.741 589.38 753.905 586.639C753.94 586.219 754.29 585.904 754.71 585.928C755.131 585.951 755.446 586.312 755.423 586.732C755.271 589.252 755.645 591.724 756.52 594.08C756.66 594.477 756.462 594.92 756.077 595.072C755.983 595.107 755.901 595.118 755.808 595.118Z" fill="#FFBD59"/>
<path fill-rule="evenodd" clip-rule="evenodd" d="M756.17 612.624C755.936 612.624 755.726 612.601 755.528 612.554C754.862 612.391 754.535 611.983 754.383 611.679L748.055 598.826C747.868 598.465 748.008 598.022 748.347 597.823L755.434 593.683C755.773 593.485 756.217 593.59 756.438 593.928L762.533 603.258C762.767 603.608 762.662 604.087 762.312 604.32C761.961 604.553 761.494 604.46 761.261 604.098L755.563 595.374L749.725 598.791L755.738 610.991C755.761 611.026 755.855 611.049 755.89 611.061C756.73 611.271 759.019 610.466 761.097 608.938C761.436 608.694 761.915 608.763 762.16 609.102C762.405 609.452 762.335 609.93 761.985 610.175C760.233 611.469 757.805 612.624 756.17 612.624Z" fill="#FFBD59"/>
<mask id="mask19_982_138" style="mask-type:luminance" maskUnits="userSpaceOnUse" x="735" y="602" width="16" height="14">
<path d="M735.316 615.144V602.384H750.262V615.144H735.316Z" fill="white"/>
</mask>
<g mask="url(#mask19_982_138)">
<path fill-rule="evenodd" clip-rule="evenodd" d="M742.381 605.953C740.29 605.953 738.586 607.668 738.586 609.79C738.586 611.901 740.29 613.627 742.381 613.627C744.471 613.627 746.175 611.901 746.175 609.79C746.175 607.668 744.471 605.953 742.381 605.953ZM742.381 615.167C739.45 615.167 737.068 612.753 737.068 609.79C737.068 606.828 739.45 604.413 742.381 604.413C745.311 604.413 747.681 606.828 747.681 609.79C747.693 612.753 745.311 615.167 742.381 615.167Z" fill="#FFBD59"/>
</g>
<path d="M656.427 620.412H669.13C672.703 620.412 675.354 621.158 677.07 622.651C678.81 624.144 679.686 626.465 679.686 629.602C679.686 631.818 679.265 633.591 678.425 634.921C677.607 636.227 676.381 637.23 674.735 637.906C676.848 638.63 678.425 639.714 679.452 641.172C680.48 642.607 680.993 644.554 680.993 647.004C680.993 650.363 680.059 652.812 678.191 654.328C676.346 655.856 673.626 656.614 670.018 656.614H656.427V620.412ZM669.551 636.927C672.073 636.927 673.941 636.344 675.155 635.154C676.37 633.941 676.977 632.121 676.977 629.695C676.977 627.246 676.346 625.485 675.109 624.424C673.859 623.339 671.851 622.791 669.084 622.791H659.042V636.927H669.551ZM669.924 654.235C672.633 654.235 674.7 653.652 676.136 652.462C677.596 651.284 678.331 649.418 678.331 646.864C678.331 644.041 677.514 642.082 675.903 640.986C674.315 639.866 672.19 639.306 669.551 639.306H659.042V654.235H669.924Z" fill="white"/>
<path d="M693.358 657.081C691.046 657.081 689.294 656.428 688.08 655.122C686.889 653.792 686.305 651.926 686.305 649.523C686.305 647.167 686.889 645.371 688.08 644.158C689.259 642.922 691.139 642.14 693.731 641.826L703.072 640.846V638.373C703.072 636.355 702.628 634.874 701.764 633.941C700.924 632.985 699.756 632.495 698.262 632.495C696.732 632.495 695.319 632.565 694.011 632.682C692.704 632.775 690.625 632.985 687.8 633.288L687.66 631.142C691.396 630.489 694.724 630.162 697.654 630.162C700.387 630.162 702.395 630.839 703.679 632.168C704.952 633.475 705.594 635.551 705.594 638.373V652.789C705.653 653.325 705.991 653.792 706.622 654.189C707.24 654.562 708.093 654.818 709.19 654.935L709.097 657.081C707.848 657.081 706.727 656.894 705.734 656.521C704.73 656.148 703.971 655.611 703.446 654.888C700.176 656.358 696.814 657.081 693.358 657.081ZM693.544 654.842C696.253 654.842 698.962 654.364 701.671 653.395L703.072 652.929V642.992L694.058 643.878C692.248 644.042 690.952 644.555 690.182 645.418C689.399 646.258 689.014 647.541 689.014 649.243C689.014 652.976 690.52 654.842 693.544 654.842Z" fill="white"/>
<path d="M714.087 618.872H716.703V656.614H714.087V618.872Z" fill="white"/>
<path d="M725.225 618.872H727.84V656.614H725.225V618.872Z" fill="white"/>
<mask id="mask20_982_138" style="mask-type:luminance" maskUnits="userSpaceOnUse" x="732" y="596" width="126" height="87">
<path d="M732.327 682.965V596.412H857.869V682.965H732.327Z" fill="white"/>
</mask>
<g mask="url(#mask20_982_138)">
<mask id="mask21_982_138" style="mask-type:luminance" maskUnits="userSpaceOnUse" x="0" y="-69" width="1480" height="821">
<path d="M0 -68.3002L0 751.3L1479.6 751.3L1479.6 -68.3002L0 -68.3002Z" fill="white" fill-opacity="0.6667"/>
</mask>
<g mask="url(#mask21_982_138)">
<mask id="mask22_982_138" style="mask-type:luminance" maskUnits="userSpaceOnUse" x="732" y="596" width="126" height="87">
<path d="M732.327 596.412V683H857.869V596.412H732.327Z" fill="white"/>
</mask>
<g mask="url(#mask22_982_138)">
<path d="M738.06 624.86H749.923C753.25 624.86 755.726 625.584 757.349 627.006C758.96 628.406 759.777 630.575 759.777 633.491C759.777 635.544 759.38 637.2 758.61 638.436C757.827 639.649 756.671 640.582 755.153 641.236C757.138 641.924 758.61 642.95 759.544 644.315C760.501 645.656 760.992 647.464 760.992 649.726C760.992 652.876 760.116 655.162 758.376 656.584C756.66 658.019 754.103 658.73 750.717 658.73H738.06V624.86ZM750.296 640.303C752.655 640.303 754.406 639.766 755.527 638.67C756.671 637.55 757.255 635.859 757.255 633.584C757.255 631.287 756.66 629.642 755.48 628.639C754.324 627.613 752.456 627.1 749.876 627.1H740.488V640.303H750.296ZM750.623 656.491C753.168 656.491 755.118 655.955 756.461 654.858C757.827 653.739 758.516 651.989 758.516 649.586C758.516 646.974 757.746 645.154 756.228 644.128C754.733 643.078 752.748 642.542 750.296 642.542H740.488V656.491H750.623Z" fill="white"/>
<path d="M772.495 659.149C770.37 659.149 768.759 658.543 767.638 657.33C766.517 656.094 765.957 654.344 765.957 652.105C765.957 649.9 766.494 648.221 767.591 647.066C768.712 645.923 770.487 645.189 772.916 644.874L781.603 644.034V641.701C781.603 639.812 781.194 638.424 780.388 637.549C779.606 636.651 778.52 636.196 777.119 636.196C775.683 636.196 774.34 636.243 773.102 636.336C771.888 636.429 769.973 636.639 767.358 636.943L767.218 634.937C770.697 634.318 773.815 634.003 776.558 634.003C779.104 634.003 780.972 634.633 782.163 635.87C783.377 637.083 783.984 639.03 783.984 641.701V655.137C784.008 655.674 784.323 656.117 784.919 656.49C785.502 656.84 786.32 657.073 787.347 657.19L787.254 659.149C786.063 659.149 785.012 658.974 784.078 658.636C783.167 658.263 782.455 657.773 781.929 657.143C778.87 658.485 775.729 659.149 772.495 659.149ZM772.729 657.097C775.251 657.097 777.773 656.63 780.295 655.697L781.603 655.277V645.993L773.196 646.833C771.514 646.961 770.3 647.428 769.553 648.233C768.829 649.049 768.479 650.239 768.479 651.825C768.479 655.347 769.891 657.097 772.729 657.097Z" fill="white"/>
<path d="M799.131 659.243C797.602 659.243 796.387 658.987 795.488 658.497C794.613 657.972 793.97 657.085 793.573 655.837C793.2 654.601 793.013 652.828 793.013 650.519V636.57H789.323V634.424H793.013V626.726H795.348V634.424H803.848V636.57H795.348V648.886C795.348 651.126 795.418 652.793 795.582 653.878C795.768 654.939 796.142 655.744 796.703 656.304C797.263 656.864 798.197 657.144 799.505 657.144L804.129 656.724L804.315 658.777C802.039 659.08 800.31 659.243 799.131 659.243Z" fill="white"/>
<path d="M815.903 659.243C814.374 659.243 813.159 658.987 812.26 658.497C811.385 657.972 810.742 657.085 810.345 655.837C809.972 654.601 809.785 652.828 809.785 650.519V636.57H806.095V634.424H809.785V626.726H812.12V634.424H820.62V636.57H812.12V648.886C812.12 651.126 812.19 652.793 812.354 653.878C812.54 654.939 812.914 655.744 813.475 656.304C814.035 656.864 814.969 657.144 816.277 657.144L820.901 656.724L821.087 658.777C818.811 659.08 817.082 659.243 815.903 659.243Z" fill="white"/>
<path d="M825.436 623.461H827.864V658.73H825.436V623.461Z" fill="white"/>
<path d="M844.479 659.149C840.836 659.149 838.267 658.205 836.773 656.304C835.302 654.414 834.578 651.382 834.578 647.206C834.578 642.728 835.372 639.415 836.96 637.269C838.571 635.1 841.116 634.003 844.572 634.003C847.748 634.003 850.095 634.937 851.625 636.803C853.143 638.669 853.913 641.585 853.913 645.527L853.867 647.579H837.006C836.971 649.912 837.205 651.767 837.707 653.131C838.197 654.507 839.038 655.51 840.229 656.164C841.408 656.793 843.043 657.097 845.133 657.097C845.997 657.097 847.024 657.073 848.215 657.003C849.395 656.945 850.504 656.863 851.531 656.77L852.979 656.63L853.073 658.636C849.71 658.974 846.838 659.149 844.479 659.149ZM851.485 645.527C851.485 642.168 850.924 639.765 849.803 638.296C848.706 636.803 846.966 636.056 844.572 636.056C842.074 636.056 840.194 636.838 838.921 638.389C837.637 639.917 836.983 642.296 836.96 645.527H851.485Z" fill="white"/>
</g>
</g>
</g>
</g>
<defs>
<linearGradient id="paint0_linear_982_138" x1="-32.9335" y1="692.547" x2="1247.94" y2="15.2411" gradientUnits="userSpaceOnUse">
<stop stop-color="white" stop-opacity="0.26"/>
<stop offset="0.5" stop-color="#FF8080" stop-opacity="0"/>
<stop offset="1" stop-color="white" stop-opacity="0.31"/>
</linearGradient>
<clipPath id="clip0_982_138">
<rect width="683" height="1233" fill="white" transform="matrix(0 -1 1 0 0 683)"/>
</clipPath>
</defs>
</svg>
