<svg width="192" height="148" viewBox="0 0 192 148" fill="none" xmlns="http://www.w3.org/2000/svg">
<g id="cloud 1">
<path id="Vector" d="M0 97.125C0 120.105 19.35 138.75 43.2 138.75H153.6C174.81 138.75 192 122.187 192 101.75C192 83.857 178.8 68.9125 161.28 65.5016C162.51 62.4086 163.2 59.0266 163.2 55.5C163.2 40.1797 150.3 27.75 134.4 27.75C128.49 27.75 122.97 29.4844 118.41 32.4328C110.1 18.5578 94.59 9.25 76.8 9.25C50.28 9.25 28.8 29.9469 28.8 55.5C28.8 56.2805 28.83 57.0609 28.86 57.8414C12.06 63.5359 0 78.9719 0 97.125Z" fill="white" fill-opacity="0.2"/>
<ellipse id="Ellipse 2" cx="134.4" cy="57.5553" rx="24.6857" ry="24.6667" fill="white" fill-opacity="0.5"/>
</g>
</svg>
