<svg width="172" height="172" viewBox="0 0 172 172" fill="none" xmlns="http://www.w3.org/2000/svg">
<g id="earth-americas 1" clip-path="url(#clip0_953_350)">
<path id="Vector" opacity="0.4" d="M8.02885 49.6516L22.5078 71.3531C25.3296 75.5859 29.596 78.7102 34.5007 80.0875L54.7578 85.8992C60.5359 87.5453 64.4999 92.8195 64.4999 98.8328V112.237C64.4999 115.932 66.5828 119.291 69.8749 120.938C73.1671 122.584 75.2499 125.943 75.2499 129.638V142.74C75.2499 147.98 80.2554 151.777 85.2945 150.332C90.7031 148.787 94.9023 144.453 96.2796 138.977L97.2203 135.215C98.6312 129.538 102.327 124.666 107.399 121.777L110.12 120.232C115.159 117.377 118.25 112.002 118.25 106.223V103.435C118.25 99.1687 116.537 95.0703 113.513 92.0469L112.203 90.7367C109.18 87.7133 105.081 86 100.815 86H86.3359C82.607 86 78.9117 85.0258 75.6531 83.1781L64.0632 76.5602C62.6187 75.7203 61.5101 74.3766 60.9726 72.7977C59.8976 69.5727 61.3421 66.0789 64.3992 64.5672L66.3812 63.5594C68.5984 62.4508 71.1851 62.2492 73.5367 63.0555L81.3304 65.6422C84.0851 66.5492 87.1085 65.5078 88.6874 63.1227C90.2663 60.7711 90.0984 57.6469 88.2843 55.4633L83.7156 49.9875C80.3562 45.9562 80.3898 40.0773 83.8164 36.1133L89.225 29.7977C92.114 26.4383 92.6515 21.6344 90.5351 17.7039L81.0953 0.134375C82.7078 0.0335937 84.3539 0 85.9999 0C118.687 0 147.141 18.2414 161.687 45.1164L138.104 55.2281C132.964 57.4453 130.377 63.1898 132.124 68.4977L138.037 86.2687C139.112 89.4937 141.631 92.0133 144.823 93.0547L170.555 101.621C163.232 141.665 128.16 172 85.9999 172C38.4984 172 -6.10352e-05 133.502 -6.10352e-05 86C-6.10352e-05 73.0328 2.889 60.7039 8.02885 49.6516Z" fill="white" fill-opacity="0.5"/>
<path id="Vector_2" d="M81.1154 0.134766C48.6974 1.94883 21.0498 21.7356 8.01541 49.652L22.4943 71.3535C25.3162 75.5863 29.5826 78.7106 34.4873 80.0879L54.7443 85.8996C60.5224 87.5457 64.4865 92.8199 64.4865 98.8332V112.237C64.4865 115.932 66.5693 119.292 69.8615 120.938C73.1537 122.584 75.2365 125.943 75.2365 129.639V142.74C75.2365 147.981 80.242 151.777 85.281 150.332C90.6896 148.787 94.8889 144.454 96.2662 138.978L97.2068 135.215C98.6178 129.538 102.313 124.667 107.386 121.778L110.107 120.232C115.146 117.377 118.237 112.002 118.237 106.224V103.436C118.237 99.1692 116.523 95.0707 113.5 92.0473L112.19 90.7371C109.166 87.7137 105.068 86.0004 100.801 86.0004H86.3224C82.5935 86.0004 78.8982 85.0262 75.6396 83.1785L64.0498 76.5606C62.6053 75.7207 61.4967 74.377 60.9592 72.7981C59.8842 69.5731 61.3287 66.0793 64.3857 64.5676L66.3678 63.5598C68.5849 62.4512 71.1717 62.2496 73.5232 63.0559L81.317 65.6426C84.0717 66.5496 87.0951 65.5082 88.674 63.1231C90.2529 60.7715 90.0849 57.6473 88.2709 55.4637L83.7021 49.9879C80.3428 45.9566 80.3764 40.0777 83.8029 36.1137L89.2115 29.798C92.1006 26.4387 92.6381 21.6348 90.5217 17.7043L81.1154 0.134766ZM161.673 45.1168L138.09 55.2285C132.951 57.4457 130.364 63.1902 132.111 68.4981L138.023 86.2691C139.098 89.4941 141.618 92.0137 144.809 93.0551L170.542 101.621C171.483 96.5488 171.953 91.3082 171.953 85.9668C171.953 71.1856 168.224 57.2441 161.64 45.0832L161.673 45.1168Z" fill="white" fill-opacity="0.5"/>
</g>
<defs>
<clipPath id="clip0_953_350">
<rect width="172" height="172" fill="white"/>
</clipPath>
</defs>
</svg>
