<svg width="111" height="111" viewBox="0 0 111 111" fill="none" xmlns="http://www.w3.org/2000/svg">
<g id="message 2">
<g id="Clip path group">
<mask id="mask0_983_518" style="mask-type:luminance" maskUnits="userSpaceOnUse" x="5" y="1" width="106" height="106">
<g id="ec2FHPxUQyR13">
<path id="Vector" d="M5.35156 1.48047H110.672V106.788H5.35156V1.48047Z" fill="white"/>
</g>
</mask>
<g mask="url(#mask0_983_518)">
<g id="Group">
<g id="Group_2">
<g id="Clip path group_2">
<mask id="mask1_983_518" style="mask-type:luminance" maskUnits="userSpaceOnUse" x="-5" y="-9" width="126" height="126">
<g id="ec2FHPxUQyR11">
<path id="Vector_2" d="M-4.5459 13.9511L98.2405 -8.45703L120.651 94.3167L17.865 116.725L-4.5459 13.9511Z" fill="white"/>
</g>
</mask>
<g mask="url(#mask1_983_518)">
<g id="Group_3">
<g id="Group_4">
<g id="Clip path group_3">
<mask id="mask2_983_518" style="mask-type:luminance" maskUnits="userSpaceOnUse" x="5" y="1" width="106" height="106">
<g id="ec2FHPxUQyR9">
<path id="Vector_3" d="M46.8471 2.7466C18.4634 8.93432 0.47087 36.9574 6.65935 65.3375C12.8478 93.7177 40.8743 111.708 69.258 105.52C97.6416 99.3326 115.634 71.3096 109.446 42.9294C103.257 14.5492 75.2307 -3.44112 46.8471 2.7466Z" fill="white"/>
</g>
</mask>
<g mask="url(#mask2_983_518)">
<g id="Group_5">
<g id="Group_6">
<path id="Vector_4" d="M-4.5459 13.9511L98.2405 -8.45703L120.651 94.3167L17.865 116.725L-4.5459 13.9511Z" fill="white"/>
</g>
</g>
</g>
</g>
</g>
</g>
</g>
</g>
</g>
</g>
</g>
</g>
<g id="Clip path group_4">
<mask id="mask3_983_518" style="mask-type:luminance" maskUnits="userSpaceOnUse" x="0" y="2" width="106" height="106">
<g id="ec2FHPxUQyR26">
<path id="Vector_5" d="M0.227539 2.61816H105.662V107.926H0.227539V2.61816Z" fill="white"/>
</g>
</mask>
<g mask="url(#mask3_983_518)">
<g id="Group_7">
<g id="Group_8">
<g id="Clip path group_5">
<mask id="mask4_983_518" style="mask-type:luminance" maskUnits="userSpaceOnUse" x="-10" y="-8" width="126" height="126">
<g id="ec2FHPxUQyR24">
<path id="Vector_6" d="M-9.65137 15.0634L93.1354 -7.34473L115.546 95.429L12.7595 117.837L-9.65137 15.0634Z" fill="white"/>
</g>
</mask>
<g mask="url(#mask4_983_518)">
<g id="Group_9">
<g id="Group_10">
<g id="Clip path group_6">
<mask id="mask5_983_518" style="mask-type:luminance" maskUnits="userSpaceOnUse" x="0" y="2" width="106" height="106">
<g id="ec2FHPxUQyR22">
<path id="Vector_7" d="M41.7416 3.85904C13.358 10.0468 -4.6346 38.0698 1.55388 66.45C7.7428 94.8301 35.7689 112.82 64.1525 106.633C92.5366 100.445 110.529 72.422 104.341 44.0418C98.1518 15.6617 70.1257 -2.32912 41.7416 3.85904Z" fill="white"/>
</g>
</mask>
<g mask="url(#mask5_983_518)">
<g id="Group_11">
<g id="Group_12">
<path id="Vector_8" d="M-9.65137 15.0634L93.1354 -7.34473L115.546 95.429L12.7595 117.837L-9.65137 15.0634Z" fill="#A970E3"/>
</g>
</g>
</g>
</g>
</g>
</g>
</g>
</g>
</g>
</g>
</g>
</g>
<g id="ec2FHPxUQyR28_to">
<g id="Group_13">
<g id="ec2FHPxUQyR29_ts">
<g id="Clip path group_7">
<mask id="mask6_983_518" style="mask-type:luminance" maskUnits="userSpaceOnUse" x="18" y="29" width="13" height="27">
<g id="ec2FHPxUQyR36">
<path id="Vector_9" d="M18.2202 29.9678H30.9494V55.4235H18.2202V29.9678Z" fill="white"/>
</g>
</mask>
<g mask="url(#mask6_983_518)">
<g id="Group_14">
<g id="Group_15">
<g id="Clip path group_8">
<mask id="mask7_983_518" style="mask-type:luminance" maskUnits="userSpaceOnUse" x="18" y="29" width="13" height="27">
<g id="ec2FHPxUQyR34">
<path id="Vector_10" d="M18.2202 36.332C18.2202 32.817 21.0698 29.9678 24.5848 29.9678C28.0998 29.9678 30.9494 32.817 30.9494 36.332V49.0597C30.9494 52.5742 28.0998 55.4235 24.5848 55.4235C21.0698 55.4235 18.2202 52.5742 18.2202 49.0597V36.332Z" fill="white"/>
</g>
</mask>
<g mask="url(#mask7_983_518)">
<g id="Group_16">
<g id="Group_17">
<path id="Vector_11" d="M18.2202 55.4235V29.9678H30.9494V55.4235H18.2202Z" fill="white"/>
</g>
</g>
</g>
</g>
</g>
</g>
</g>
</g>
</g>
<g id="Clip path group_9">
<mask id="mask8_983_518" style="mask-type:luminance" maskUnits="userSpaceOnUse" x="37" y="29" width="14" height="27">
<g id="ec2FHPxUQyR45">
<path id="Vector_12" d="M37.7188 29.9678H50.448V55.4235H37.7188V29.9678Z" fill="white"/>
</g>
</mask>
<g mask="url(#mask8_983_518)">
<g id="Group_18">
<g id="ec2FHPxUQyR39_ts">
<g id="Group_19">
<g id="Clip path group_10">
<mask id="mask9_983_518" style="mask-type:luminance" maskUnits="userSpaceOnUse" x="37" y="29" width="14" height="27">
<g id="ec2FHPxUQyR43">
<path id="Vector_13" d="M37.7188 36.332C37.7188 32.817 40.5684 29.9678 44.0834 29.9678C47.5983 29.9678 50.448 32.817 50.448 36.332V49.0597C50.448 52.5742 47.5983 55.4235 44.0834 55.4235C40.5684 55.4235 37.7188 52.5742 37.7188 49.0597V36.332Z" fill="white"/>
</g>
</mask>
<g mask="url(#mask9_983_518)">
<g id="Group_20">
<g id="Group_21">
<path id="Vector_14" d="M37.7188 55.4235V29.9678H50.448V55.4235H37.7188Z" fill="white"/>
</g>
</g>
</g>
</g>
</g>
</g>
</g>
</g>
</g>
</g>
</g>
</g>
</svg>
