<svg width="16" height="16" viewBox="0 0 16 16" fill="none" xmlns="http://www.w3.org/2000/svg">
<path d="M14.7902 6.66667H9.41196V1.14286C9.41196 0.511786 9.2025 0 8.57143 0H7.42857C6.7975 0 6.72283 0.511786 6.72283 1.14286V6.66667H1.14286C0.511786 6.66667 0 6.7975 0 7.42857V8.57143C0 9.2025 0.511786 9.33333 1.14286 9.33333H6.72283V14.8571C6.72283 15.4882 6.7975 16 7.42857 16H8.57143C9.2025 16 9.41196 15.4882 9.41196 14.8571V9.33333H14.7902C15.4213 9.33333 16 9.2025 16 8.57143V7.42857C16 6.7975 15.4213 6.66667 14.7902 6.66667Z" fill="white"/>
</svg>