<svg id="ec2FHPxUQyR1" xmlns="http://www.w3.org/2000/svg" xmlns:xlink="http://www.w3.org/1999/xlink" viewBox="0 0 974.88 974.999993" shape-rendering="geometricPrecision" text-rendering="geometricPrecision">
<style><![CDATA[
#ec2FHPxUQyR28_to {animation: ec2FHPxUQyR28_to__to 6400ms linear infinite normal forwards}@keyframes ec2FHPxUQyR28_to__to { 0% {offset-distance: 0%} 53.125% {offset-distance: 0%} 59.375% {offset-distance: 51.801208%} 93.75% {offset-distance: 51.801208%} 98.4375% {offset-distance: 100%} 100% {offset-distance: 100%}} #ec2FHPxUQyR29_ts {animation: ec2FHPxUQyR29_ts__ts 6400ms linear infinite normal forwards}@keyframes ec2FHPxUQyR29_ts__ts { 0% {transform: translate(476.855469px,363.693359px) scale(1,1)} 2.65625% {transform: translate(476.855469px,363.693359px) scale(1,0.003786)} 5.46875% {transform: translate(476.855469px,363.693359px) scale(1,1)} 46.875% {transform: translate(476.855469px,363.693359px) scale(1,1)} 49.53125% {transform: translate(476.855469px,363.693359px) scale(1,0.003786)} 52.34375% {transform: translate(476.855469px,363.693359px) scale(1,1)} 73.4375% {transform: translate(476.855469px,363.693359px) scale(1,1)} 76.09375% {transform: translate(476.855469px,363.693359px) scale(1,0.003786)} 78.90625% {transform: translate(476.855469px,363.693359px) scale(1,1)} 100% {transform: translate(476.855469px,363.693359px) scale(1,1)}} #ec2FHPxUQyR39_ts {animation: ec2FHPxUQyR39_ts__ts 6400ms linear infinite normal forwards}@keyframes ec2FHPxUQyR39_ts__ts { 0% {transform: translate(648.105469px,363.693359px) scale(1,1)} 2.65625% {transform: translate(648.105469px,363.693359px) scale(1,0.003785)} 5.46875% {transform: translate(648.105469px,363.693359px) scale(1,1)} 46.875% {transform: translate(648.105469px,363.693359px) scale(1,1)} 49.53125% {transform: translate(648.105469px,363.693359px) scale(1,0.003786)} 52.34375% {transform: translate(648.105469px,363.693359px) scale(1,1)} 73.4375% {transform: translate(648.105469px,363.693359px) scale(1,1)} 76.09375% {transform: translate(648.105469px,363.693359px) scale(1,0.003786)} 78.90625% {transform: translate(648.105469px,363.693359px) scale(1,1)} 100% {transform: translate(648.105469px,363.693359px) scale(1,1)}}
]]></style>
<g clip-path="url(#ec2FHPxUQyR13)"><g><g clip-path="url(#ec2FHPxUQyR11)"><g><g clip-path="url(#ec2FHPxUQyR9)"><g><path d="M-39.925781,122.542969L862.816406,-74.285156l196.828125,902.742187-902.742187,196.828125Zm0,0" fill="#fff"/></g><clipPath id="ec2FHPxUQyR9"><path d="M411.445312,24.128906c-249.285156,54.351563-407.308593,300.5-352.957031,549.785156s300.5,407.308594,549.785157,352.957032s407.308593-300.5,352.957031-549.785156-300.5-407.308594-549.785157-352.957032Zm0,0"/></clipPath></g></g><clipPath id="ec2FHPxUQyR11"><path d="M-39.925781,122.542969L862.816406,-74.285156l196.828125,902.742187-902.742187,196.828125Zm0,0"/></clipPath></g></g><clipPath id="ec2FHPxUQyR13"><path d="M47,13h925v925h-925Zm0,0"/></clipPath></g><g clip-path="url(#ec2FHPxUQyR26)"><g><g clip-path="url(#ec2FHPxUQyR24)"><g><g clip-path="url(#ec2FHPxUQyR22)"><g><path d="M-84.765625,132.320312L817.980469,-64.507812l196.828125,902.742187L112.0625,1035.0625Zm0,0" fill="#a970e3"/></g><clipPath id="ec2FHPxUQyR22"><path d="M366.605469,33.90625c-249.285157,54.351562-407.308594,300.5-352.957031,549.785156C68.003906,832.976562,314.148438,991,563.433594,936.648438c249.289062-54.355469,407.3125-300.5,352.960937-549.785157-54.355469-249.285156-300.5-407.3125-549.789062-352.957031Zm0,0"/></clipPath></g></g><clipPath id="ec2FHPxUQyR24"><path d="M-84.765625,132.320312L817.980469,-64.507812l196.828125,902.742187L112.0625,1035.0625Zm0,0"/></clipPath></g></g><clipPath id="ec2FHPxUQyR26"><path d="M2,23h926v925h-926Zm0,0"/></clipPath></g><g id="ec2FHPxUQyR28_to" style="offset-path:path('M562.480469,363.69336C440.127315,323.722148,285.020916,394.828093,239.997502,487.499996Q239.997502,487.499996,239.997502,487.499996Q239.997502,487.499996,562.480469,363.69336');offset-rotate:0deg"><g transform="translate(-562.480468,-363.693359)"><g id="ec2FHPxUQyR29_ts" transform="translate(476.855469,363.693359) scale(1,1)"><g transform="translate(-476.855469,-363.693359)" clip-path="url(#ec2FHPxUQyR36)"><g><g clip-path="url(#ec2FHPxUQyR34)"><g><path d="M420.957031,475.492188v-223.597657h111.796875v223.597657Zm0,0" fill="#fff"/></g><clipPath id="ec2FHPxUQyR34"><path d="M420.957031,307.796875c0-30.875,25.027344-55.902344,55.898438-55.902344s55.898437,25.027344,55.898437,55.902344v111.796875c0,30.871094-25.027344,55.898438-55.898437,55.898438s-55.898438-25.027344-55.898438-55.898438Zm0,0"/></clipPath></g></g><clipPath id="ec2FHPxUQyR36"><path d="M420.957031,251.894531h111.796875v223.597657h-111.796875Zm0,0"/></clipPath></g></g><g clip-path="url(#ec2FHPxUQyR45)"><g id="ec2FHPxUQyR39_ts" transform="translate(648.105469,363.693359) scale(1,1)"><g transform="translate(-648.105469,-363.693359)"><g clip-path="url(#ec2FHPxUQyR43)"><g><path d="M592.207031,475.492188v-223.597657h111.796875v223.597657Zm0,0" fill="#fff"/></g><clipPath id="ec2FHPxUQyR43"><path d="M592.207031,307.796875c0-30.875,25.027344-55.902344,55.898438-55.902344s55.898437,25.027344,55.898437,55.902344v111.796875c0,30.871094-25.027344,55.898438-55.898437,55.898438s-55.898438-25.027344-55.898438-55.898438Zm0,0"/></clipPath></g></g></g><clipPath id="ec2FHPxUQyR45"><path d="M592.207031,251.894531h111.796875v223.597657h-111.796875Zm0,0"/></clipPath></g></g></g></svg>
