<svg width="19" height="19" viewBox="0 0 19 19" fill="none" xmlns="http://www.w3.org/2000/svg">
<g id="comment-regular 1" clip-path="url(#clip0_629_297)">
<path id="Vector" d="M4.58665 14.5209C5.06536 14.1721 5.68508 14.083 6.24172 14.2834C7.22512 14.6396 8.32727 14.8437 9.49993 14.8437C14.1275 14.8437 17.2187 11.8564 17.2187 8.90625C17.2187 5.95605 14.1275 2.96875 9.49993 2.96875C4.87239 2.96875 1.78118 5.95605 1.78118 8.90625C1.78118 10.0937 2.24133 11.2367 3.10598 12.2164C3.42512 12.5764 3.58098 13.0514 3.54387 13.5338C3.49192 14.2055 3.33235 14.8215 3.12454 15.367C3.7554 15.0738 4.27864 14.7473 4.58665 14.5246V14.5209ZM0.786647 16.0275C0.853444 15.9273 0.91653 15.8271 0.975905 15.727C1.347 15.1109 1.69954 14.302 1.77005 13.3928C0.656764 12.1273 -7.13933e-05 10.5799 -7.13933e-05 8.90625C-7.13933e-05 4.64238 4.25266 1.1875 9.49993 1.1875C14.7472 1.1875 18.9999 4.64238 18.9999 8.90625C18.9999 13.1701 14.7472 16.625 9.49993 16.625C8.12317 16.625 6.81692 16.3875 5.63684 15.9607C5.19524 16.2836 4.47532 16.7252 3.6218 17.0963C3.06145 17.3412 2.42317 17.5639 1.76262 17.6937C1.73294 17.7012 1.70325 17.7049 1.67356 17.7123C1.51028 17.742 1.35071 17.768 1.18372 17.7828C1.1763 17.7828 1.16516 17.7865 1.15774 17.7865C0.968483 17.8051 0.779225 17.8162 0.589968 17.8162C0.348757 17.8162 0.133522 17.6715 0.0407489 17.4488C-0.0520245 17.2262 -7.14012e-05 16.9738 0.166921 16.8031C0.319069 16.6473 0.456374 16.4803 0.586257 16.3021C0.649343 16.2168 0.708718 16.1314 0.764382 16.0461C0.768093 16.0387 0.771804 16.035 0.775514 16.0275H0.786647Z" fill="white"/>
</g>
<defs>
<clipPath id="clip0_629_297">
<rect width="19" height="19" fill="white"/>
</clipPath>
</defs>
</svg>
