<?xml version="1.0" encoding="iso-8859-1"?>
<!-- Uploaded to: SVG Repo, www.svgrepo.com, Generator: SVG Repo Mixer Tools -->
<svg version="1.1" id="Layer_1" xmlns="http://www.w3.org/2000/svg" xmlns:xlink="http://www.w3.org/1999/xlink" 
	 viewBox="0 0 512 512" xml:space="preserve">
<path style="fill:#FACE17;" d="M464.653,165.524c0-7.054-4.416-13.352-11.047-15.757c-6.632-2.404-14.057-0.401-18.578,5.015
	l-79.649,95.037L270.691,95.987c-2.944-5.36-8.574-8.692-14.69-8.692s-11.745,3.331-14.69,8.692l-84.108,153.832L76.99,152.757
	c-4.515-5.425-11.945-7.438-18.582-5.038c-6.637,2.401-11.058,8.703-11.058,15.76v254.08c0,9.221,7.449,16.711,16.671,16.76
	l383.784,2.045c0.03,0,0.06,0,0.089,0c4.429,0,8.678-1.753,11.819-4.877c3.162-3.145,4.941-7.422,4.941-11.883V165.524H464.653z"/>
<circle style="fill:#E25F3F;" cx="64.113" cy="128.515" r="43.643"/>
<path style="fill:#E9C013;" d="M464.653,165.524c0-7.054-4.416-13.352-11.047-15.757c-6.632-2.404-14.057-0.401-18.578,5.015
	l-79.649,95.037L270.691,95.987c-2.944-5.36-8.574-8.692-14.69-8.692l0,0v348.047l191.803,1.022c0.03,0,0.06,0,0.089,0
	c4.429,0,8.678-1.753,11.819-4.877c3.162-3.145,4.941-7.422,4.941-11.883v-254.08H464.653z"/>
<path style="fill:#7D684A;" d="M509.627,457.422c0-30.142-25.212-54.578-56.314-54.578H58.687
	c-31.102,0-56.314,24.435-56.314,54.578S27.585,512,58.687,512h394.626C484.415,512,509.627,487.564,509.627,457.422z"/>
<path style="fill:#DE3205;" d="M256.001,0c-33.309,0-60.407,27.099-60.407,60.407s27.099,60.407,60.407,60.407
	c33.31,0,60.407-27.099,60.407-60.407S289.31,0,256.001,0z"/>
<circle style="fill:#9D2217;" cx="447.893" cy="129.308" r="43.643"/>
<g transform="matrix(0.7071 0.7071 -0.7071 0.7071 255.86 -84.14)">
	<rect x="216.293" y="215.492" style="fill:#DE3205;" width="108.75" height="108.75"/>
	<rect x="245.042" y="244.241" style="fill:#FFFFFF;" width="51.262" height="51.262"/>
</g>
<polygon style="fill:#9D2217;" points="464.653,374.972 387.758,298.077 464.653,221.183 "/>
<polygon style="fill:#E25F3F;" points="47.348,374.972 124.243,298.077 47.348,221.183 "/>
<g>
	<polygon style="fill:#FFFFFF;" points="464.653,334.325 428.405,298.077 464.653,261.83 	"/>
	<polygon style="fill:#FFFFFF;" points="47.348,261.83 83.596,298.077 47.348,334.325 	"/>
</g>
<path style="fill:#5D4E38;" d="M453.313,402.844H256.001v109.155h197.312c31.102,0,56.314-24.435,56.314-54.578
	S484.415,402.844,453.313,402.844z"/>
</svg>