<svg xmlns="http://www.w3.org/2000/svg" width="102" height="102" viewBox="0 0 102 102" fill="none">
  <g clip-path="url(#clip0_219_309)">
    <path d="M86.2956 51.7539L83.5344 54.7312C83.5344 54.7312 83.5281 54.7275 83.5214 54.7237C83.4432 54.8152 83.3608 54.9131 83.276 55.0008C82.8315 55.5047 82.383 56.0148 81.923 56.5009C81.1013 57.3768 80.2768 58.2421 79.4552 59.118C72.9451 65.9976 66.394 72.8452 59.9683 79.8162C57.883 82.0814 56.2088 82.3026 53.5296 80.653C43.0485 74.2087 32.4477 67.9433 21.7976 61.7771C21.3043 61.4923 20.883 61.2152 20.5192 60.9282C20.4841 60.8995 20.4559 60.8743 20.4212 60.8458C18.9396 59.6232 18.6118 58.2377 19.4578 55.7951C22.2653 47.6918 24.8348 39.5113 27.4439 31.3367C28.0648 29.3881 28.6895 27.4327 29.3233 25.4916C29.3811 25.3029 29.4452 25.1178 29.5063 24.9226C29.5148 24.8932 29.527 24.8575 29.5418 24.8318L29.5355 24.8281L30.9007 20.5834L32.2081 25.2603L34.7477 34.3742C35.7134 37.8369 36.6847 41.3199 37.6793 44.9106C42.3793 42.8818 47.053 40.8547 51.9814 38.7272L57.0632 36.5259L58.704 35.8154L58.8751 37.7683L59.4165 43.772C59.8549 48.6219 60.2752 53.3253 60.6925 57.9752C66.5162 56.5609 72.2794 55.1628 78.026 53.7641L82.1002 52.7754L86.2956 51.7539Z" fill="#CE8345"/>
  </g>
  <defs>
    <clipPath id="clip0_219_309">
      <rect width="74" height="74" fill="white" transform="translate(37) rotate(30)"/>
    </clipPath>
  </defs>
</svg>