<svg width="22" height="24" viewBox="0 0 22 24" fill="none" xmlns="http://www.w3.org/2000/svg">
<g id="align-left (1) 1">
<path id="Vector" d="M0.785714 2.25C0.353571 2.25 0 2.5875 0 3C0 3.4125 0.353571 3.75 0.785714 3.75H13.3571C13.7893 3.75 14.1429 3.4125 14.1429 3C14.1429 2.5875 13.7893 2.25 13.3571 2.25H0.785714ZM0.785714 8.25C0.353571 8.25 0 8.5875 0 9C0 9.4125 0.353571 9.75 0.785714 9.75H21.2143C21.6464 9.75 22 9.4125 22 9C22 8.5875 21.6464 8.25 21.2143 8.25H0.785714ZM0 15C0 15.4125 0.353571 15.75 0.785714 15.75H13.3571C13.7893 15.75 14.1429 15.4125 14.1429 15C14.1429 14.5875 13.7893 14.25 13.3571 14.25H0.785714C0.353571 14.25 0 14.5875 0 15ZM0.785714 20.25C0.353571 20.25 0 20.5875 0 21C0 21.4125 0.353571 21.75 0.785714 21.75H21.2143C21.6464 21.75 22 21.4125 22 21C22 20.5875 21.6464 20.25 21.2143 20.25H0.785714Z" fill="#D6D5D8"/>
</g>
</svg>
