<svg xmlns="http://www.w3.org/2000/svg" width="44" height="39" viewBox="0 0 44 39" fill="none">
  <g clip-path="url(#clip0_181_446)">
    <path d="M23.1841 0.43418C22.4966 -0.144727 21.4959 -0.144727 20.8084 0.43418L0.641758 17.4967C-0.12977 18.1518 -0.221437 19.302 0.427869 20.0713C1.07717 20.8406 2.23829 20.932 3.00981 20.2846L4.88898 18.7002V32.9062C4.88898 36.273 7.6237 39 11.0001 39H33.0001C36.3765 39 39.1112 36.273 39.1112 32.9062V18.7002L40.9827 20.2846C41.7543 20.9396 42.9154 20.8406 43.5647 20.0713C44.214 19.302 44.1223 18.1441 43.3508 17.4967L23.1841 0.43418ZM8.55565 32.9062V15.6L22.0001 4.22754L35.4445 15.6V32.9062C35.4445 34.2545 34.3522 35.3438 33.0001 35.3438H29.3334V23.7656C29.3334 22.0822 27.9661 20.7188 26.2779 20.7188H17.7223C16.0341 20.7188 14.6668 22.0822 14.6668 23.7656V35.3438H11.0001C9.64801 35.3438 8.55565 34.2545 8.55565 32.9062ZM18.3334 35.3438V24.375H25.6668V35.3438H18.3334Z" fill="white"/>
  </g>
  <defs>
    <clipPath id="clip0_181_446">
      <rect width="44" height="39" fill="white"/>
    </clipPath>
  </defs>
</svg>