<svg xmlns="http://www.w3.org/2000/svg" width="30" height="30" viewBox="0 0 30 30" fill="none">
  <path d="M26.25 4.6875C26.7656 4.6875 27.1875 5.10938 27.1875 5.625V24.3633L26.8945 23.9824L18.9258 13.6699C18.6621 13.3242 18.2461 13.125 17.8125 13.125C17.3789 13.125 16.9688 13.3242 16.6992 13.6699L11.8359 19.9629L10.0488 17.4609C9.78516 17.0918 9.36328 16.875 8.90625 16.875C8.44922 16.875 8.02734 17.0918 7.76367 17.4668L3.07617 24.0293L2.8125 24.3926V24.375V5.625C2.8125 5.10938 3.23438 4.6875 3.75 4.6875H26.25ZM3.75 1.875C1.68164 1.875 0 3.55664 0 5.625V24.375C0 26.4434 1.68164 28.125 3.75 28.125H26.25C28.3184 28.125 30 26.4434 30 24.375V5.625C30 3.55664 28.3184 1.875 26.25 1.875H3.75ZM8.4375 13.125C8.80684 13.125 9.17257 13.0523 9.5138 12.9109C9.85503 12.7696 10.1651 12.5624 10.4262 12.3012C10.6874 12.0401 10.8946 11.73 11.0359 11.3888C11.1773 11.0476 11.25 10.6818 11.25 10.3125C11.25 9.94316 11.1773 9.57743 11.0359 9.2362C10.8946 8.89497 10.6874 8.58493 10.4262 8.32376C10.1651 8.0626 9.85503 7.85543 9.5138 7.71409C9.17257 7.57275 8.80684 7.5 8.4375 7.5C8.06816 7.5 7.70243 7.57275 7.3612 7.71409C7.01997 7.85543 6.70993 8.0626 6.44876 8.32376C6.1876 8.58493 5.98043 8.89497 5.83909 9.2362C5.69775 9.57743 5.625 9.94316 5.625 10.3125C5.625 10.6818 5.69775 11.0476 5.83909 11.3888C5.98043 11.73 6.1876 12.0401 6.44876 12.3012C6.70993 12.5624 7.01997 12.7696 7.3612 12.9109C7.70243 13.0523 8.06816 13.125 8.4375 13.125Z" fill="white"/>
</svg>