<svg width="12" height="14" viewBox="0 0 12 14" fill="none" xmlns="http://www.w3.org/2000/svg">
<path d="M10.5 6.64684C10.5 3.94593 8.48438 1.75464 6 1.75464C5.58516 1.75464 5.25 1.39027 5.25 0.939268C5.25 0.488268 5.58516 0.123901 6 0.123901C9.31406 0.123901 12 3.04393 12 6.64684C12 10.2497 9.31406 13.1698 6 13.1698C5.58516 13.1698 5.25 12.8054 5.25 12.3544C5.25 11.9034 5.58516 11.539 6 11.539C8.48438 11.539 10.5 9.34774 10.5 6.64684ZM5.40469 3.2172L8.02969 6.07098C8.32266 6.38949 8.32266 6.90674 8.02969 7.22524L5.40469 10.079C5.11172 10.3975 4.63594 10.3975 4.34297 10.079C4.05 9.76052 4.05 9.24327 4.34297 8.92477L5.68828 7.4622H0.75C0.335156 7.4622 0 7.09784 0 6.64684C0 6.19584 0.335156 5.83147 0.75 5.83147H5.68828L4.34297 4.36891C4.05 4.0504 4.05 3.53315 4.34297 3.21465C4.63594 2.89615 5.11172 2.89615 5.40469 3.21465V3.2172Z" fill="white"/>
</svg>
