<svg width="40" height="32" viewBox="0 0 40 32" fill="none" xmlns="http://www.w3.org/2000/svg">
    <g clip-path="url(#clip0_48_141)">
        <path
            d="M9 7C9 3.13125 12.1313 0 16 0H17C17.55 0 18 0.45 18 1V2C18 5.7625 15.0312 8.83125 11.3125 8.99375C9.81875 11.0062 9 13.4625 9 16C9 22.075 13.925 27 20 27H20.725C23.4438 27 26.1187 27.6313 28.55 28.85L29.1688 29.1625C29.9125 29.5312 30.2125 30.4312 29.8375 31.175C29.4625 31.9187 28.5688 32.2188 27.825 31.8438L27.2062 31.5312C25.1937 30.525 22.975 30 20.725 30H20C17.0312 30 14.2812 29.075 12.0188 27.5063C8.29375 29.2688 3.775 27.9 1.68125 24.2687L1.18125 23.4C0.90625 22.9187 1.06875 22.3125 1.55 22.0312C2.4125 21.5312 3.325 21.2125 4.25625 21.0625C1.71875 19.725 0 17.0625 0 14V13C0 12.45 0.45 12 1 12C1.99375 12 2.94375 12.1812 3.825 12.5125C2.30625 10.0875 2.15 6.91875 3.68125 4.26875L4.18125 3.4C4.45625 2.91875 5.06875 2.75625 5.55 3.03125C7.1875 3.98125 8.3625 5.425 9 7.0625V7Z"
            fill="white" />
        <path opacity=".6"
            d="M24 0C27.8688 0 31 3.13125 31 7V7.0625C31.6375 5.425 32.8125 3.9875 34.4563 3.0375C34.9375 2.7625 35.5438 2.925 35.825 3.40625L36.325 4.275C37.8563 6.925 37.6938 10.0938 36.1813 12.5188C37.0625 12.1875 38.0125 12.0063 39.0063 12.0063C39.5563 12.0063 40.0063 12.4563 40.0063 13.0063V14.0063C40.0063 17.0688 38.2875 19.7313 35.7563 21.075C36.6813 21.225 37.6 21.5438 38.4563 22.0438C38.9375 22.3188 39.1 22.9312 38.825 23.4125L38.325 24.2812C36.225 27.9125 31.7125 29.2812 27.9875 27.5187C27.6563 27.75 27.3188 27.9625 26.9688 28.1625C24.9813 27.4062 22.8688 27.0125 20.7313 27.0125H20C26.075 27.0125 31 22.0875 31 16.0125C31 13.475 30.1813 11.0188 28.6875 9.00625C24.9688 8.83125 22 5.7625 22 2V1C22 0.45 22.45 0 23 0H24ZM13.0375 28.15C15.0875 29.325 17.4688 30 20 30H19.275C17.025 30 14.8063 30.525 12.7875 31.5312L12.1688 31.8438C11.425 32.2125 10.525 31.9125 10.1563 31.175C9.78751 30.4375 10.0875 29.5312 10.825 29.1625L11.4438 28.85C11.9625 28.5875 12.4938 28.3562 13.0313 28.15H13.0375Z"
            fill="white" />
    </g>
    <defs>
        <clipPath id="clip0_48_141">
            <rect width="40" height="32" fill="white" />
        </clipPath>
    </defs>
</svg>