<svg width="10" height="11" viewBox="0 0 10 11" fill="none" xmlns="http://www.w3.org/2000/svg">
<path d="M3.21429 3.09375V4.125H6.78571V3.09375C6.78571 2.14414 5.98661 1.375 5 1.375C4.01339 1.375 3.21429 2.14414 3.21429 3.09375ZM1.78571 4.125V3.09375C1.78571 1.38574 3.22545 0 5 0C6.77455 0 8.21429 1.38574 8.21429 3.09375V4.125H8.57143C9.35938 4.125 10 4.7416 10 5.5V9.625C10 10.3834 9.35938 11 8.57143 11H1.42857C0.640625 11 0 10.3834 0 9.625V5.5C0 4.7416 0.640625 4.125 1.42857 4.125H1.78571Z" fill="#ffffffaa"/>
</svg>
