<svg width="30" height="30" viewBox="0 0 30 30" fill="none" xmlns="http://www.w3.org/2000/svg">
<g clip-path="url(#clip0_63_757)">
<path d="M5.625 12.6562C5.625 11.877 6.25195 11.25 7.03125 11.25H15.4688C16.248 11.25 16.875 11.877 16.875 12.6562C16.875 13.4355 16.248 14.0625 15.4688 14.0625H7.03125C6.25195 14.0625 5.625 13.4355 5.625 12.6562ZM18.75 12.6562C18.75 11.877 19.377 11.25 20.1562 11.25H22.9688C23.748 11.25 24.375 11.877 24.375 12.6562C24.375 13.4355 23.748 14.0625 22.9688 14.0625H20.1562C19.377 14.0625 18.75 13.4355 18.75 12.6562ZM5.625 17.3438C5.625 16.5645 6.25195 15.9375 7.03125 15.9375H9.84375C10.623 15.9375 11.25 16.5645 11.25 17.3438C11.25 18.123 10.623 18.75 9.84375 18.75H7.03125C6.25195 18.75 5.625 18.123 5.625 17.3438ZM13.125 17.3438C13.125 16.5645 13.752 15.9375 14.5312 15.9375H22.9688C23.748 15.9375 24.375 16.5645 24.375 17.3438C24.375 18.123 23.748 18.75 22.9688 18.75H14.5312C13.752 18.75 13.125 18.123 13.125 17.3438Z" fill="white"/>
<path opacity="0.4" d="M0 3.75C0 1.68164 1.68164 0 3.75 0H26.25C28.3184 0 30 1.68164 30 3.75V20.625C30 22.6934 28.3184 24.375 26.25 24.375H18.123L10.875 29.8125C10.5938 30.0234 10.2129 30.0586 9.89062 29.9004C9.56836 29.7422 9.375 29.4199 9.375 29.0625V24.375H3.75C1.68164 24.375 0 22.6934 0 20.625V3.75ZM7.03125 11.25C6.25195 11.25 5.625 11.877 5.625 12.6562C5.625 13.4355 6.25195 14.0625 7.03125 14.0625H15.4688C16.248 14.0625 16.875 13.4355 16.875 12.6562C16.875 11.877 16.248 11.25 15.4688 11.25H7.03125ZM20.1562 11.25C19.377 11.25 18.75 11.877 18.75 12.6562C18.75 13.4355 19.377 14.0625 20.1562 14.0625H22.9688C23.748 14.0625 24.375 13.4355 24.375 12.6562C24.375 11.877 23.748 11.25 22.9688 11.25H20.1562ZM7.03125 15.9375C6.25195 15.9375 5.625 16.5645 5.625 17.3438C5.625 18.123 6.25195 18.75 7.03125 18.75H9.84375C10.623 18.75 11.25 18.123 11.25 17.3438C11.25 16.5645 10.623 15.9375 9.84375 15.9375H7.03125ZM14.5312 15.9375C13.752 15.9375 13.125 16.5645 13.125 17.3438C13.125 18.123 13.752 18.75 14.5312 18.75H22.9688C23.748 18.75 24.375 18.123 24.375 17.3438C24.375 16.5645 23.748 15.9375 22.9688 15.9375H14.5312Z" fill="white"/>
</g>
<defs>
<clipPath id="clip0_63_757">
<rect width="30" height="30" fill="white"/>
</clipPath>
</defs>
</svg>
