<svg width="34" height="34" viewBox="0 0 34 34" fill="none" xmlns="http://www.w3.org/2000/svg">
<g id="magnifying-glass 1" clip-path="url(#clip0_226_8)">
<path d="M24.4375 13.8125C24.4375 10.9946 23.3181 8.29207 21.3255 6.29949C19.3329 4.30692 16.6304 3.1875 13.8125 3.1875C10.9946 3.1875 8.29206 4.30692 6.29949 6.29949C4.30692 8.29207 3.1875 10.9946 3.1875 13.8125C3.1875 16.6304 4.30692 19.3329 6.29949 21.3255C8.29206 23.3181 10.9946 24.4375 13.8125 24.4375C16.6304 24.4375 19.3329 23.3181 21.3255 21.3255C23.3181 19.3329 24.4375 16.6304 24.4375 13.8125ZM22.3855 24.6434C20.0348 26.5094 17.0531 27.625 13.8125 27.625C6.18242 27.625 0 21.4426 0 13.8125C0 6.18242 6.18242 0 13.8125 0C21.4426 0 27.625 6.18242 27.625 13.8125C27.625 17.0531 26.5094 20.0348 24.6434 22.3855L33.5352 31.2773C34.1594 31.9016 34.1594 32.9109 33.5352 33.5285C32.9109 34.1461 31.9016 34.1527 31.284 33.5285L22.3855 24.6434Z" fill="white"/>
</g>
<defs>
<clipPath id="clip0_226_8">
<rect width="34" height="34" fill="white"/>
</clipPath>
</defs>
</svg>
