<svg xmlns="http://www.w3.org/2000/svg" width="19" height="22" viewBox="0 0 19 22" fill="none">
  <path d="M18.6862 11.7477C18.8855 11.5543 19 11.2836 19 11C19 10.7164 18.8855 10.45 18.6862 10.2523L11.2219 3.03359C10.8147 2.63828 10.1701 2.65547 9.78415 3.06797C9.39821 3.48047 9.41094 4.13359 9.81808 4.52461L15.4417 9.96875H1.01786C0.453795 9.96875 0 10.4285 0 11C0 11.5715 0.453795 12.0312 1.01786 12.0312H15.4417L9.81384 17.4711C9.4067 17.8664 9.39397 18.5152 9.77991 18.9277C10.1658 19.3402 10.8105 19.3531 11.2176 18.9621L18.6819 11.7434L18.6862 11.7477Z" fill="#d17d7d"/>
</svg>