<svg xmlns="http://www.w3.org/2000/svg" width="23" height="18" viewBox="0 0 23 18" fill="none">
  <g clip-path="url(#clip0_629_301)">
    <path d="M8.05 1.6875C8.8125 1.6875 9.54376 1.98382 10.0829 2.51126C10.6221 3.03871 10.925 3.75408 10.925 4.5C10.925 5.24592 10.6221 5.96129 10.0829 6.48874C9.54376 7.01618 8.8125 7.3125 8.05 7.3125C7.2875 7.3125 6.55623 7.01618 6.01707 6.48874C5.4779 5.96129 5.175 5.24592 5.175 4.5C5.175 3.75408 5.4779 3.03871 6.01707 2.51126C6.55623 1.98382 7.2875 1.6875 8.05 1.6875ZM8.05 9C9.27 9 10.44 8.52589 11.3027 7.68198C12.1654 6.83807 12.65 5.69347 12.65 4.5C12.65 3.30653 12.1654 2.16193 11.3027 1.31802C10.44 0.474106 9.27 0 8.05 0C6.83 0 5.65998 0.474106 4.79731 1.31802C3.93464 2.16193 3.45 3.30653 3.45 4.5C3.45 5.69347 3.93464 6.83807 4.79731 7.68198C5.65998 8.52589 6.83 9 8.05 9ZM6.40766 12.375H9.69234C12.0534 12.375 14.0084 14.0871 14.3283 16.3125H1.77172C2.09156 14.0871 4.04656 12.375 6.40766 12.375ZM6.40766 10.6875C2.86781 10.6875 0 13.493 0 16.9559C0 17.5324 0.477969 18 1.06734 18H15.0327C15.622 18 16.1 17.5324 16.1 16.9559C16.1 13.493 13.2322 10.6875 9.69234 10.6875H6.40766ZM15.7812 7.03125C15.3033 7.03125 14.9569 7.40742 14.9569 7.875C14.9569 8.34258 15.3033 8.71875 15.7812 8.71875H22.1375C22.6155 8.71875 23 8.34258 23 7.875C23 7.40742 22.6155 7.03125 22.1375 7.03125H15.7812Z" fill="#BE195D"/>
  </g>
  <defs>
    <clipPath id="clip0_629_301">
      <rect width="23" height="18" fill="white"/>
    </clipPath>
  </defs>
</svg>